<svg width="1em" height="1em" viewBox="0 0 25 24" fill="none" xmlns="http://www.w3.org/2000/svg">
<g id="s-custom 1">
<path id="Vector" d="M15.8516 12.628C17.8528 13.2506 19.4537 14.3624 20.6544 15.9633C21.8552 17.5643 22.4704 19.4099 22.5 21.5H4C4.02964 19.4099 4.64483 17.5643 5.84555 15.9633C7.04627 14.3624 8.64724 13.2506 10.6484 12.628L13.25 16.5192L15.8516 12.628ZM17.875 7.625C17.8454 8.92949 17.3932 10.019 16.5186 10.8936C15.644 11.7682 14.5545 12.2204 13.25 12.25C11.9455 12.2204 10.856 11.7682 9.98137 10.8936C9.10678 10.019 8.65464 8.92949 8.625 7.625C8.65464 6.32051 9.10678 5.23096 9.98137 4.35637C10.856 3.48178 11.9455 3.02964 13.25 3C14.5545 3.02964 15.644 3.48178 16.5186 4.35637C17.3932 5.23096 17.8454 6.32051 17.875 7.625Z" fill="currentColor"/>
</g>
</svg>
