<svg width="1em" height="1em" viewBox="0 0 25 24" fill="none" xmlns="http://www.w3.org/2000/svg">
<g id="s-ticket 1">
<path id="Vector" d="M15.272 19.68H1.44801V15.072C2.31201 15.056 3.03602 14.756 3.62001 14.172C4.20401 13.588 4.50401 12.864 4.52001 12C4.50401 11.136 4.20401 10.412 3.62001 9.82801C3.03602 9.24402 2.31201 8.94402 1.44801 8.92801V4.32001H15.272V8.16001H16.808V4.32001H22.952V8.92801C22.088 8.94402 21.364 9.24402 20.78 9.82801C20.196 10.412 19.896 11.136 19.88 12C19.896 12.864 20.196 13.588 20.78 14.172C21.364 14.756 22.088 15.056 22.952 15.072V19.68H16.808V15.84H15.272V19.68ZM15.272 9.69601V14.304H16.808V9.69601H15.272Z" fill="currentColor"/>
</g>
</svg>
