<svg width="24" height="24" viewBox="0 0 24 24" fill="none" xmlns="http://www.w3.org/2000/svg">
<g id="finance-filled">
<path id="vector" d="M16.125 12C15.375 12.0155 14.754 12.2695 14.262 12.762C13.77 13.2545 13.516 13.8755 13.5 14.625C13.5155 15.375 13.7695 15.996 14.262 16.488C14.7545 16.98 15.3755 17.234 16.125 17.25H21V21H3V8.25H21V12H16.125ZM16.875 15.75H16.125C15.8125 15.7345 15.5507 15.6213 15.3397 15.4103C15.1287 15.1993 15.0233 14.9375 15.0233 14.625C15.0233 14.3125 15.1287 14.0507 15.3397 13.8397C15.5507 13.6287 15.8125 13.5155 16.125 13.5H16.875C17.1875 13.5155 17.4493 13.6287 17.6603 13.8397C17.8713 14.0507 17.9767 14.3125 17.9767 14.625C17.9767 14.9375 17.8713 15.1993 17.6603 15.4103C17.4493 15.6213 17.1875 15.7345 16.875 15.75ZM15 3L18 6.75H9L15 3Z" fill="currentColor"/>
</g>
</svg>
