<svg width="16" height="16" viewBox="0 0 16 16" fill="none" xmlns="http://www.w3.org/2000/svg">
<g id="Icons" clip-path="url(#clip0_134_17946)">
<path id="Vector" d="M8.00004 14.6667C11.6819 14.6667 14.6667 11.6819 14.6667 8.00001C14.6667 4.31811 11.6819 1.33334 8.00004 1.33334C4.31814 1.33334 1.33337 4.31811 1.33337 8.00001C1.33337 11.6819 4.31814 14.6667 8.00004 14.6667Z" stroke="#100A05" stroke-width="1.25" stroke-linecap="round" stroke-linejoin="round"/>
<path id="Vector_2" d="M5.33336 2H6.00003C4.69986 5.89435 4.69986 10.1057 6.00003 14H5.33336" stroke="#100A05" stroke-width="1.25" stroke-linecap="round" stroke-linejoin="round"/>
<path id="Vector_3" d="M10 2C11.3002 5.89435 11.3002 10.1057 10 14" stroke="#100A05" stroke-width="1.25" stroke-linecap="round" stroke-linejoin="round"/>
<path id="Vector_4" d="M2 10.6667V10C5.89435 11.3002 10.1057 11.3002 14 10V10.6667" stroke="#100A05" stroke-width="1.25" stroke-linecap="round" stroke-linejoin="round"/>
<path id="Vector_5" d="M2 6C5.89435 4.69983 10.1057 4.69983 14 6" stroke="#100A05" stroke-width="1.25" stroke-linecap="round" stroke-linejoin="round"/>
</g>
<defs>
<clipPath id="clip0_134_17946">
<rect width="16" height="16" fill="currentColor"/>
</clipPath>
</defs>
</svg>
