<svg width="46" height="33" viewBox="0 0 46 33" fill="none" xmlns="http://www.w3.org/2000/svg">
<g id="Group">
<path id="Vector" d="M39.0439 0.950012H0.626343C0.626343 7.98298 6.34063 13.6973 13.3736 13.6973H17.7692C17.0659 15.7192 16.6263 17.8291 16.6263 20.1148C16.6263 27.8511 21.5494 32.95 25.6813 32.95C29.8132 32.95 32.978 30.0489 33.5934 26.1808C31.1318 25.3017 29.3736 22.928 29.3736 20.1148C29.3736 15.8951 33.1538 13.6973 35.7912 13.6973C37.9011 13.6973 39.7472 14.7522 40.8901 16.2467C43.2637 14.4006 45.3736 10.5324 45.3736 7.27968C45.3736 3.7632 42.5604 0.950012 39.0439 0.950012Z" fill="url(#paint0_linear_134_17920)"/>
<g id="Clip path group">
<mask id="mask0_134_17920" style="mask-type:luminance" maskUnits="userSpaceOnUse" x="0" y="0" width="46" height="33">
<g id="clippath">
<path id="Vector_2" d="M39.0439 0.950012H0.626343C0.626343 7.98298 6.34063 13.6973 13.3736 13.6973H17.7692C17.0659 15.7192 16.6263 17.8291 16.6263 20.1148C16.6263 27.8511 21.5494 32.95 25.6813 32.95C29.8132 32.95 32.978 30.0489 33.5934 26.1808C31.1318 25.3017 29.3736 22.928 29.3736 20.1148C29.3736 15.8951 33.1538 13.6973 35.7912 13.6973C37.9011 13.6973 39.7472 14.7522 40.8901 16.2467C43.2637 14.4006 45.3736 10.5324 45.3736 7.27968C45.3736 3.7632 42.5604 0.950012 39.0439 0.950012Z" fill="white"/>
</g>
</mask>
<g mask="url(#mask0_134_17920)">
<g id="Group_2">
<path id="Vector_3" d="M58.8241 -26.9181C58.8241 -7.13789 42.8241 8.95003 22.956 8.95003C3.08787 8.95003 -12.8242 -7.04997 -12.8242 -26.9181C-12.8242 -46.7862 3.26369 -62.6983 23.0439 -62.6983C31.0439 -62.6983 42.0329 -63.3137 48.0109 -58.8302C56.7142 -52.3247 58.8241 -38.6983 58.8241 -26.9181Z" fill="url(#paint1_linear_134_17920)"/>
</g>
</g>
</g>
<g id="Clip path group_2">
<mask id="mask1_134_17920" style="mask-type:luminance" maskUnits="userSpaceOnUse" x="0" y="0" width="46" height="33">
<g id="clippath-1">
<path id="Vector_4" d="M39.0439 0.950012H0.626343C0.626343 7.98298 6.34063 13.6973 13.3736 13.6973H17.7692C17.0659 15.7192 16.6263 17.8291 16.6263 20.1148C16.6263 27.8511 21.5494 32.95 25.6813 32.95C29.8132 32.95 32.978 30.0489 33.5934 26.1808C31.1318 25.3017 29.3736 22.928 29.3736 20.1148C29.3736 15.8951 33.1538 13.6973 35.7912 13.6973C37.9011 13.6973 39.7472 14.7522 40.8901 16.2467C43.2637 14.4006 45.3736 10.5324 45.3736 7.27968C45.3736 3.7632 42.5604 0.950012 39.0439 0.950012Z" fill="white"/>
</g>
</mask>
<g mask="url(#mask1_134_17920)">
<g id="Group_3">
<path id="Vector_5" d="M54.2527 19.7632C54.2527 30.1368 45.8132 38.5764 35.4395 38.5764C25.0659 38.5764 16.6263 30.1368 16.6263 19.7632C16.6263 9.38957 25.0659 0.950012 35.4395 0.950012C39.6593 0.950012 45.3736 0.598366 48.5384 2.97199C53.1978 6.40056 54.2527 13.5214 54.2527 19.7632Z" fill="url(#paint2_linear_134_17920)"/>
</g>
</g>
</g>
<g id="Clip path group_3">
<mask id="mask2_134_17920" style="mask-type:luminance" maskUnits="userSpaceOnUse" x="0" y="0" width="46" height="33">
<g id="clippath-2">
<path id="Vector_6" d="M39.0439 0.950012H0.626343C0.626343 7.98298 6.34063 13.6973 13.3736 13.6973H17.7692C17.0659 15.7192 16.6263 17.8291 16.6263 20.1148C16.6263 27.8511 21.5494 32.95 25.6813 32.95C29.8132 32.95 32.978 30.0489 33.5934 26.1808C31.1318 25.3017 29.3736 22.928 29.3736 20.1148C29.3736 15.8951 33.1538 13.6973 35.7912 13.6973C37.9011 13.6973 39.7472 14.7522 40.8901 16.2467C43.2637 14.4006 45.3736 10.5324 45.3736 7.27968C45.3736 3.7632 42.5604 0.950012 39.0439 0.950012Z" fill="white"/>
</g>
</mask>
<g mask="url(#mask2_134_17920)">
<g id="Group_4">
<path id="Vector_7" d="M38.956 27.2357C46.3846 27.2357 52.4066 21.2137 52.4066 13.7852C52.4066 6.35664 46.3846 0.334625 38.956 0.334625C31.5275 0.334625 25.5055 6.35664 25.5055 13.7852C25.5055 21.2137 31.5275 27.2357 38.956 27.2357Z" fill="url(#paint3_linear_134_17920)"/>
</g>
</g>
</g>
</g>
<defs>
<linearGradient id="paint0_linear_134_17920" x1="9.47909" y1="19.6929" x2="42.5165" y2="0.615948" gradientUnits="userSpaceOnUse">
<stop stop-color="#E48E00"/>
<stop offset="0.19" stop-color="#F6AB00"/>
<stop offset="0.32" stop-color="#FABE00"/>
<stop offset="0.47" stop-color="#FDD108"/>
</linearGradient>
<linearGradient id="paint1_linear_134_17920" x1="5.04831" y1="4.18519" x2="43.123" y2="-61.7577" gradientUnits="userSpaceOnUse">
<stop stop-color="#FDD000" stop-opacity="0.2"/>
<stop offset="0.5" stop-color="#E48E00"/>
</linearGradient>
<linearGradient id="paint2_linear_134_17920" x1="19.1494" y1="29.1698" x2="53.2945" y2="9.45111" gradientUnits="userSpaceOnUse">
<stop stop-color="#E48E00"/>
<stop offset="0.07" stop-color="#F39800"/>
<stop offset="0.18" stop-color="#F6AB00"/>
<stop offset="0.6" stop-color="#FDD108"/>
</linearGradient>
<linearGradient id="paint3_linear_134_17920" x1="25.5055" y1="13.7852" x2="52.3802" y2="13.7852" gradientUnits="userSpaceOnUse">
<stop stop-color="#FDD108"/>
<stop offset="1" stop-color="#E48E00"/>
</linearGradient>
</defs>
</svg>
