<svg width="40" height="37" viewBox="0 0 40 37" fill="none" xmlns="http://www.w3.org/2000/svg">
<path d="M32.9469 0.950012H15.0783C10.8383 0.950012 6.52564 3.45363 5.45958 6.53067L0.96921 19.493C-0.0928104 22.57 2.67329 26.5919 7.13539 28.4576L25.9529 36.3318C30.4191 38.1974 34.7318 35.6979 35.5717 30.7512L39.105 9.91459C39.953 4.98811 37.1869 0.950012 32.9469 0.950012ZM35.608 9.56328L31.9737 29.5801C31.4973 32.1888 29.1471 33.5657 26.6879 32.6451L7.9632 25.5824C5.54034 24.6617 4.00182 22.4529 4.57523 20.6559L8.96465 6.88198C9.53806 5.08503 11.9084 3.71207 14.2505 3.81706L32.216 4.62468C34.5622 4.74583 36.0805 6.95467 35.608 9.56328Z" fill="#100A05"/>
<path d="M10.9596 23.628L11.8561 23.7371C14.0205 23.9753 15.8618 22.7033 16.298 22.1218C16.7341 21.5403 17.1379 20.3733 17.6144 18.4512L20.4411 7.03954L26.0944 7.53218L23.1668 20.7368C22.6459 23.0991 21.6565 24.6053 20.2028 25.2312C18.7491 25.8571 16.5887 25.635 13.7418 24.6578C13.1927 24.472 12.3608 24.1651 12.0741 24.0601C11.7874 23.9551 11.21 23.733 10.9677 23.6321L10.9596 23.628Z" fill="#FFBE00"/>
</svg>
