<svg width="140" height="134" viewBox="0 0 140 134" fill="none" xmlns="http://www.w3.org/2000/svg">
<path d="M137.284 70.4086C137.284 71.4243 137.258 72.4393 137.208 73.4537C137.158 74.4681 137.083 75.4807 136.983 76.4915C136.883 77.5022 136.757 78.5099 136.607 79.5146C136.457 80.5192 136.283 81.5196 136.084 82.5157C135.884 83.5119 135.66 84.5025 135.411 85.4877C135.163 86.4729 134.89 87.4515 134.593 88.4234C134.296 89.3953 133.976 90.3594 133.632 91.3157C133.287 92.2719 132.919 93.2192 132.527 94.1576C132.136 95.0959 131.722 96.0241 131.285 96.9422C130.847 97.8603 130.388 98.7673 129.906 99.663C129.424 100.559 128.92 101.442 128.395 102.313C127.869 103.184 127.322 104.042 126.754 104.887C126.186 105.731 125.597 106.561 124.989 107.377C124.379 108.193 123.75 108.993 123.102 109.778C122.453 110.564 121.785 111.332 121.098 112.085C120.411 112.837 119.707 113.573 118.984 114.291C118.261 115.009 117.52 115.709 116.763 116.391C116.005 117.073 115.231 117.737 114.441 118.381C113.65 119.025 112.844 119.649 112.023 120.255C111.202 120.86 110.366 121.445 109.516 122.009C108.666 122.573 107.802 123.116 106.925 123.638C106.048 124.161 105.159 124.661 104.257 125.139C103.355 125.618 102.442 126.075 101.518 126.509C100.593 126.944 99.6586 127.355 98.7139 127.744C97.7692 128.132 96.8155 128.498 95.8527 128.84C94.89 129.182 93.9194 129.5 92.9409 129.795C91.9624 130.09 90.9772 130.361 89.9853 130.608C88.9934 130.855 87.996 131.077 86.9932 131.275C85.9903 131.473 84.9831 131.647 83.9717 131.796C82.9602 131.945 81.9457 132.069 80.928 132.169C79.9105 132.268 78.891 132.343 77.8697 132.393C76.8484 132.443 75.8265 132.468 74.804 132.468C73.7814 132.468 72.7595 132.443 71.7383 132.393C70.7169 132.343 69.6975 132.268 68.6799 132.169C67.6623 132.069 66.6477 131.945 65.6363 131.796C64.6248 131.647 63.6176 131.473 62.6147 131.275C61.6119 131.077 60.6145 130.855 59.6227 130.608C58.6308 130.361 57.6456 130.09 56.6671 129.795C55.6886 129.5 54.7179 129.182 53.7551 128.84C52.7924 128.498 51.8387 128.132 50.894 127.744C49.9493 127.355 49.0148 126.944 48.0904 126.509C47.166 126.075 46.253 125.618 45.3512 125.139C44.4494 124.661 43.56 124.161 42.683 123.638C41.8059 123.116 40.9423 122.573 40.0921 122.009C39.2419 121.445 38.4061 120.86 37.5849 120.255C36.7635 119.649 35.9576 119.025 35.1672 118.381C34.3768 117.737 33.6027 117.073 32.8451 116.391C32.0875 115.709 31.3472 115.009 30.6242 114.291C29.9011 113.573 29.1962 112.837 28.5095 112.085C27.8228 111.332 27.1551 110.564 26.5065 109.778C25.8578 108.993 25.2289 108.193 24.6198 107.377C24.0106 106.561 23.422 105.731 22.8539 104.887C22.2859 104.042 21.739 103.184 21.2133 102.313C20.6876 101.442 20.1838 100.559 19.7018 99.663C19.2197 98.7673 18.7601 97.8603 18.3229 96.9422C17.8858 96.0241 17.4715 95.0959 17.0802 94.1576C16.6889 93.2192 16.321 92.2719 15.9765 91.3157C15.632 90.3594 15.3114 89.3953 15.0146 88.4234C14.7177 87.4515 14.4451 86.4729 14.1967 85.4877C13.9482 84.5025 13.7242 83.5119 13.5247 82.5157C13.3253 81.5196 13.1505 80.5192 13.0005 79.5146C12.8504 78.5099 12.7253 77.5022 12.6251 76.4915C12.5249 75.4807 12.4497 74.4681 12.3995 73.4537C12.3493 72.4393 12.3242 71.4243 12.3242 70.4086C12.3242 69.393 12.3493 68.3779 12.3995 67.3635C12.4497 66.3491 12.5249 65.3365 12.6251 64.3258C12.7253 63.315 12.8504 62.3073 13.0005 61.3027C13.1505 60.298 13.3253 59.2976 13.5247 58.3015C13.7242 57.3054 13.9482 56.3147 14.1967 55.3295C14.4451 54.3443 14.7177 53.3657 15.0146 52.3938C15.3114 51.4219 15.632 50.4578 15.9765 49.5016C16.321 48.5453 16.6889 47.598 17.0802 46.6597C17.4715 45.7214 17.8858 44.7931 18.3229 43.8749C18.7601 42.9568 19.2197 42.0499 19.7018 41.1542C20.1838 40.2585 20.6876 39.375 21.2133 38.5039C21.739 37.6327 22.2859 36.775 22.8539 35.9305C23.422 35.086 24.0106 34.2559 24.6198 33.4401C25.2289 32.6243 25.8578 31.8239 26.5065 31.0388C27.1551 30.2537 27.8228 29.4849 28.5095 28.7323C29.1962 27.9798 29.9011 27.2444 30.6242 26.5263C31.3472 25.8081 32.0875 25.108 32.8451 24.4259C33.6027 23.7439 34.3768 23.0807 35.1672 22.4364C35.9576 21.792 36.7635 21.1674 37.5849 20.5624C38.4061 19.9574 39.2419 19.3727 40.0921 18.8084C40.9423 18.2442 41.8059 17.701 42.683 17.1788C43.56 16.6567 44.4494 16.1562 45.3512 15.6775C46.253 15.1987 47.166 14.7422 48.0904 14.3079C49.0148 13.8737 49.9493 13.4622 50.894 13.0736C51.8387 12.6849 52.7924 12.3195 53.7551 11.9773C54.7179 11.6352 55.6886 11.3167 56.6671 11.0218C57.6456 10.727 58.6308 10.4562 59.6227 10.2094C60.6145 9.96266 61.6119 9.7402 62.6147 9.54206C63.6176 9.34392 64.6248 9.17033 65.6363 9.0213C66.6477 8.87228 67.6623 8.74799 68.6799 8.64844C69.6975 8.54889 70.7169 8.4742 71.7383 8.42436C72.7595 8.37453 73.7814 8.34961 74.804 8.34961C75.8265 8.34961 76.8484 8.37453 77.8697 8.42436C78.891 8.4742 79.9105 8.54889 80.928 8.64844C81.9457 8.74799 82.9602 8.87228 83.9717 9.0213C84.9831 9.17033 85.9903 9.34392 86.9932 9.54206C87.996 9.7402 88.9934 9.96266 89.9853 10.2094C90.9772 10.4562 91.9624 10.727 92.9409 11.0218C93.9194 11.3167 94.89 11.6352 95.8527 11.9773C96.8155 12.3195 97.7692 12.6849 98.7139 13.0736C99.6586 13.4622 100.593 13.8737 101.518 14.3079C102.442 14.7422 103.355 15.1987 104.257 15.6775C105.159 16.1562 106.048 16.6567 106.925 17.1788C107.802 17.701 108.666 18.2442 109.516 18.8084C110.366 19.3727 111.202 19.9574 112.023 20.5624C112.844 21.1674 113.65 21.792 114.441 22.4364C115.231 23.0807 116.005 23.7439 116.763 24.4259C117.52 25.108 118.261 25.8081 118.984 26.5263C119.707 27.2444 120.411 27.9798 121.098 28.7323C121.785 29.4849 122.453 30.2537 123.102 31.0388C123.75 31.8239 124.379 32.6243 124.989 33.4401C125.597 34.2559 126.186 35.086 126.754 35.9305C127.322 36.775 127.869 37.6327 128.395 38.5039C128.92 39.375 129.424 40.2585 129.906 41.1542C130.388 42.0499 130.847 42.9568 131.285 43.8749C131.722 44.7931 132.136 45.7214 132.527 46.6597C132.919 47.598 133.287 48.5453 133.632 49.5016C133.976 50.4578 134.296 51.4219 134.593 52.3938C134.89 53.3657 135.163 54.3443 135.411 55.3295C135.66 56.3147 135.884 57.3054 136.084 58.3015C136.283 59.2976 136.457 60.298 136.607 61.3027C136.757 62.3073 136.883 63.315 136.983 64.3258C137.083 65.3365 137.158 66.3491 137.208 67.3635C137.258 68.3779 137.284 69.393 137.284 70.4086Z" fill="#F3F5F6"/>
<path d="M136.232 70.4087C136.232 62.1309 134.623 54.214 131.405 46.6579C128.297 39.3592 123.909 32.8955 118.24 27.2668C112.572 21.6382 106.064 17.2806 98.7141 14.1942C91.1062 10.9991 83.1362 9.40154 74.8041 9.40154C66.4719 9.40154 58.5019 10.9991 50.894 14.1942C43.5445 17.2807 37.0357 21.6382 31.3676 27.2668C25.6993 32.8955 21.311 39.3593 18.2029 46.6579C14.9851 54.2141 13.3762 62.131 13.3762 70.4087C13.3762 78.6863 14.9851 86.6033 18.2029 94.1595C21.311 101.458 25.6993 107.922 31.3676 113.55C37.0356 119.179 43.5444 123.537 50.894 126.624C58.5019 129.818 66.4719 131.416 74.8041 131.416C83.1362 131.416 91.1063 129.818 98.7141 126.624C106.064 123.537 112.572 119.179 118.24 113.55C123.909 107.922 128.297 101.458 131.405 94.1595C134.623 86.6034 136.232 78.6865 136.232 70.4087ZM138.336 70.4087C138.336 78.9726 136.671 87.1643 133.34 94.9838C130.125 102.535 125.586 109.222 119.723 115.044C113.861 120.864 107.13 125.371 99.5288 128.563C91.6603 131.867 83.4188 133.52 74.8041 133.52C66.1893 133.52 57.9477 131.867 50.0793 128.563C42.4783 125.371 35.747 120.864 29.8853 115.044C24.0223 109.221 19.483 102.535 16.2674 94.9838C12.9374 87.1643 11.2725 78.9726 11.2725 70.4087C11.2725 61.8448 12.9374 53.6532 16.2674 45.8337C19.483 38.2826 24.0223 31.5961 29.8853 25.774C35.747 19.9532 42.4783 15.4467 50.0793 12.2546C57.9478 8.95008 66.1894 7.29785 74.8041 7.29785C83.4188 7.29785 91.6603 8.95009 99.5288 12.2546C107.13 15.4467 113.861 19.9532 119.723 25.774C125.586 31.596 130.125 38.2826 133.34 45.8337C136.671 53.6531 138.336 61.8448 138.336 70.4087Z" fill="#24160B" fill-opacity="0.15"/>
<path d="M122.663 62.3096V100.281C122.663 108.17 116.247 114.586 108.253 114.586H41.5656C33.6767 114.586 27.2605 108.275 27.1553 100.386C27.1553 100.281 27.1553 100.281 27.1553 100.176V62.3096C27.1553 62.2044 27.1553 62.2044 27.1553 62.0992C27.1553 61.8889 27.1553 61.6785 27.2605 61.4681C27.3656 61.1526 27.4708 60.9422 27.576 60.6266L45.4574 26.4416C46.0885 25.0742 47.4559 24.3379 48.9285 24.3379H100.785C102.257 24.3379 103.519 25.0742 104.256 26.4416L122.137 60.6266C122.242 60.837 122.347 61.1526 122.453 61.4681C122.663 61.6785 122.663 61.994 122.663 62.3096Z" fill="#F3F5F6"/>
<path d="M123.715 100.281C123.715 102.363 123.311 104.354 122.504 106.256C121.723 108.094 120.621 109.722 119.198 111.138C117.773 112.556 116.135 113.653 114.284 114.431C112.367 115.236 110.357 115.638 108.253 115.638H41.5657C39.4868 115.638 37.4968 115.241 35.5955 114.448C33.7575 113.68 32.1268 112.596 30.7036 111.194C29.2797 109.792 28.171 108.178 27.3774 106.353C26.5559 104.464 26.1313 102.479 26.1036 100.401L26.1035 100.281V100.176V62.3097V62.2045V62.0993C26.1035 61.6533 26.1756 61.2861 26.3197 60.9978L27.2605 61.4682L26.2627 61.1356C26.3043 61.0109 26.3639 60.8513 26.4417 60.6568C26.5042 60.5006 26.5497 60.3798 26.5782 60.2941L26.6049 60.214L44.5255 25.9541L45.4575 26.4417L44.5024 26.0009C44.9031 25.1327 45.5173 24.4557 46.3451 23.9699C47.1217 23.5141 47.9829 23.2861 48.9286 23.2861H100.785C101.721 23.2861 102.572 23.5158 103.338 23.9751C104.11 24.4388 104.725 25.0948 105.182 25.943L123.069 60.1392C123.167 60.3355 123.295 60.6676 123.451 61.1356L122.453 61.4682L123.197 60.7244C123.542 61.0701 123.715 61.5985 123.715 62.3097V100.281ZM121.611 100.281V62.3097C121.611 62.1626 121.608 62.0719 121.602 62.0377C121.612 62.0925 121.648 62.1506 121.709 62.212L121.533 62.0364L121.455 61.8008C121.33 61.4274 121.247 61.1985 121.205 61.1143L103.33 26.9404C102.773 25.9067 101.925 25.3898 100.785 25.3898H48.9286C48.364 25.3898 47.8578 25.5213 47.41 25.7842C46.9614 26.0474 46.629 26.4135 46.4126 26.8825L46.4017 26.9061L28.5081 61.1143L27.5761 60.6267L28.574 60.9593C28.5324 61.0841 28.4727 61.2437 28.3949 61.4381C28.3325 61.5943 28.287 61.7152 28.2584 61.8008L28.2348 61.8717L28.2014 61.9386C28.2083 61.9246 28.2119 61.9165 28.2122 61.9142C28.2089 61.941 28.2072 62.0028 28.2072 62.0993V62.2045V62.3097V100.176V100.281L28.2071 100.373C28.2311 102.169 28.5976 103.883 29.3066 105.514C29.9919 107.09 30.9496 108.484 32.1797 109.695C33.4096 110.907 34.8183 111.844 36.406 112.506C38.0479 113.192 39.7678 113.535 41.5657 113.535H108.253C110.074 113.535 111.813 113.187 113.47 112.491C115.068 111.82 116.483 110.871 117.714 109.647C118.943 108.424 119.894 107.019 120.568 105.434C121.263 103.795 121.611 102.077 121.611 100.281Z" fill="#24160B" fill-opacity="0.15"/>
<path d="M101.954 10.4302L102.145 12.4838L100.05 12.6779L99.8597 10.6243L101.954 10.4302ZM102.523 16.5467C102.672 18.1819 102.787 19.5398 102.867 20.6203L100.769 20.7759C100.69 19.7072 100.576 18.3612 100.428 16.7379L102.523 16.5467ZM103.092 24.7474C103.134 26.1878 103.125 27.5625 103.065 28.8716L100.963 28.7756C101.021 27.5189 101.029 26.1965 100.989 24.8086L103.092 24.7474ZM102.706 33.0137C102.548 34.2776 102.335 35.6375 102.067 37.0934L99.9982 36.7131C100.259 35.2965 100.466 33.9761 100.619 32.7519L102.706 33.0137ZM101.248 41.1251L100.873 42.7968L100.856 42.8479C100.816 42.9676 100.755 43.148 100.675 43.3891C100.411 44.1821 100.209 44.7791 100.068 45.1798L98.0832 44.4812C98.2203 44.0917 98.419 43.5061 98.6793 42.7244C98.76 42.4821 98.8205 42.3006 98.8609 42.18L99.8583 42.5139L98.832 42.2836L99.1954 40.6645L101.248 41.1251ZM98.3981 49.087C97.8129 50.164 97.1587 51.0852 96.4356 51.8507L95.671 51.1285L96.4752 51.8064C96.2534 52.0697 96.0183 52.3246 95.7702 52.5711L94.2876 51.0787C94.4917 50.8759 94.6847 50.6666 94.8666 50.4507L94.8858 50.4279L94.9063 50.4063C95.5039 49.7736 96.0517 48.9989 96.5498 48.0825L98.3981 49.087ZM92.1531 55.0991C90.8334 55.7339 89.4408 56.1666 87.9753 56.3973L87.6482 54.3191C88.9099 54.1206 90.1075 53.7487 91.241 53.2033L92.1531 55.0991ZM83.5805 56.4157C83.1841 56.3534 82.7958 56.2735 82.4154 56.176C81.3732 55.9175 80.3673 55.5245 79.3976 54.9971L80.4027 53.149C81.2145 53.5906 82.0594 53.9203 82.9374 54.1382C83.2533 54.2191 83.5764 54.2855 83.9069 54.3374L83.5805 56.4157ZM75.9228 52.2945C74.9094 51.2073 74.0904 49.9935 73.4658 48.6529L75.3726 47.7644C75.9034 48.9036 76.5998 49.9355 77.4617 50.8602L75.9228 52.2945ZM72.2436 44.4438C72.0351 42.9088 72.184 41.4052 72.6903 39.933L74.6797 40.6171C74.2816 41.7745 74.1644 42.9557 74.3281 44.1607L72.2436 44.4438ZM75.2554 36.1213C75.4031 35.9977 75.5549 35.8801 75.7107 35.7684L75.7365 35.75L75.7633 35.7332C76.9168 35.0078 78.2139 34.604 79.6545 34.5218L79.7744 36.622C78.6945 36.6837 77.7308 36.981 76.8832 37.514L76.3233 36.6236L76.9358 37.4787C76.8228 37.5596 76.7127 37.6449 76.6055 37.7346L75.2554 36.1213ZM84.1427 35.4376C84.8334 35.7839 85.4502 36.2104 85.9932 36.7171L85.2756 37.4861L85.9471 36.6766C86.5583 37.1836 87.1026 37.7565 87.5798 38.3951L85.8945 39.6543C85.5171 39.1492 85.0869 38.6963 84.604 38.2956L84.5803 38.276L84.5579 38.2551C84.1626 37.8862 83.7099 37.5739 83.1998 37.3181L84.1427 35.4376ZM89.4522 42.4602C89.7362 43.6471 89.8492 44.8766 89.7911 46.1487C89.7805 46.3814 89.7647 46.6153 89.7438 46.8507L87.6483 46.6644C87.6666 46.4592 87.6803 46.2553 87.6896 46.0528C87.7387 44.9784 87.6442 43.9441 87.4062 42.9498L89.4522 42.4602ZM88.8539 51.0695C88.4228 52.3828 87.8568 53.6876 87.1559 54.9839L85.3054 53.9833C85.9466 52.7974 86.4631 51.6075 86.855 50.4135L88.8539 51.0695ZM85.0921 58.5856C84.4244 59.6517 83.6296 60.7845 82.7077 61.9839L81.0398 60.7019C81.9207 59.5558 82.6772 58.4781 83.3093 57.4689L85.0921 58.5856ZM80.1957 65.2003C79.3675 66.2737 78.5597 67.3562 77.7722 68.4477L76.0661 67.2169C76.8668 66.1071 77.6881 65.0066 78.5301 63.9152L80.1957 65.2003ZM75.4556 71.7544L74.3071 73.4582L72.5627 72.2823L73.7112 70.5786L75.4556 71.7544Z" fill="#24160B" fill-opacity="0.15"/>
<path d="M108.958 4.94172C108.409 6.94023 106.214 7.67652 104.019 6.39327C101.64 5.30986 99.9943 4.39476 100.359 2.57506C100.908 0.75537 103.104 0.576556 105.665 0.387223C108.775 0.0295956 109.324 2.94321 108.958 4.94172Z" fill="#24160B" fill-opacity="0.15"/>
<path d="M91.2121 6.76148C92.1272 8.40237 94.6885 9.49629 96.5176 7.85541C98.5298 6.03571 100.177 4.76297 99.2619 2.94328C98.3468 1.3024 96.8837 1.84936 93.7734 2.20698C91.2121 2.75394 90.114 4.94179 91.2121 6.76148Z" fill="#24160B" fill-opacity="0.15"/>
<path d="M99.2616 0.029696C100.542 -0.159637 101.823 0.576657 102.189 1.66006C102.372 2.0282 102.554 2.57517 102.554 2.94331C102.92 5.48878 102.006 7.67663 100.542 7.85544C98.8956 8.22359 97.2494 6.39337 97.0664 4.02671C97.0664 3.30094 97.0664 2.94331 97.0664 2.39635C97.2494 1.12362 97.9805 0.20851 99.2616 0.029696Z" fill="#999999"/>
<path d="M122.663 62.3095V104.173C122.663 109.958 118.035 114.586 112.145 114.586H37.6738C31.8886 114.586 27.1553 109.958 27.1553 104.173V62.0991C27.1553 61.8888 27.1553 61.6784 27.2605 61.468H51.2426C54.8189 61.468 57.764 64.308 57.764 67.9895C57.764 69.7776 58.5003 71.4606 59.6574 72.6176C60.9196 73.8798 62.3922 74.5109 64.2855 74.5109H85.638C89.2143 74.5109 92.1595 71.6709 92.1595 67.9895C92.1595 66.2013 92.8958 64.5184 94.0528 63.3613C95.315 62.0991 96.7876 61.468 98.5757 61.468H122.453C122.663 61.6784 122.663 61.9939 122.663 62.3095Z" fill="white"/>
<path d="M123.715 104.173C123.715 105.738 123.416 107.23 122.817 108.649C122.237 110.026 121.416 111.241 120.354 112.296C119.291 113.351 118.065 114.168 116.677 114.744C115.242 115.34 113.731 115.638 112.145 115.638H37.6738C36.1114 115.638 34.6151 115.34 33.1849 114.744C31.8005 114.166 30.5744 113.351 29.5066 112.298C28.4355 111.242 27.6061 110.027 27.0184 108.655C26.4085 107.23 26.1035 105.737 26.1035 104.173V62.0992C26.1035 61.6532 26.1756 61.286 26.3197 60.9977L26.6105 60.4163H51.2427C53.3312 60.4163 55.1117 61.1443 56.5841 62.6004C58.072 64.0717 58.816 65.8681 58.816 67.9896C58.816 69.5223 59.3444 70.8171 60.4012 71.8739C61.458 72.9308 62.7528 73.4592 64.2856 73.4592H85.6381C87.1503 73.4592 88.4377 72.9338 89.5004 71.8829C90.5719 70.8232 91.1077 69.5255 91.1077 67.9896C91.1077 66.9693 91.3056 65.9842 91.7014 65.0343C92.0865 64.1098 92.6225 63.3043 93.3091 62.6177C94.7767 61.1501 96.5323 60.4163 98.5758 60.4163H122.888L123.197 60.7243C123.542 61.07 123.715 61.5984 123.715 62.3096V104.173ZM121.611 104.173V62.3096C121.611 62.1625 121.608 62.0718 121.602 62.0376C121.612 62.0924 121.648 62.1505 121.709 62.2119L122.453 61.4681V62.52H98.5758C97.1132 62.52 95.8535 63.0484 94.7966 64.1052C93.7398 65.162 93.2114 66.4568 93.2114 67.9896C93.2114 70.111 92.4674 71.9074 90.9795 73.3787C89.5071 74.8348 87.7266 75.5629 85.6381 75.5629H64.2856C62.1719 75.5629 60.3813 74.8291 58.9137 73.3615C58.2271 72.6748 57.6911 71.8693 57.3059 70.9448C56.9102 69.995 56.7123 69.0099 56.7123 67.9896C56.7123 66.4537 56.1765 65.1559 55.105 64.0962C54.0423 63.0454 52.7549 62.52 51.2427 62.52H27.2605V61.4681L28.2013 61.9385C28.2083 61.9246 28.2119 61.9164 28.2122 61.9141C28.2089 61.9409 28.2072 62.0026 28.2072 62.0992V104.173C28.2072 105.449 28.4556 106.667 28.9523 107.827C29.4316 108.946 30.1088 109.937 30.9838 110.8C31.8578 111.662 32.8614 112.33 33.9945 112.802C35.1656 113.29 36.3921 113.535 37.6738 113.535H112.145C114.795 113.535 117.038 112.624 118.872 110.803C120.698 108.989 121.611 106.779 121.611 104.173Z" fill="#24160B" fill-opacity="0.15"/>
<path d="M135.688 40.7467C138.07 40.7467 140 38.8113 140 36.4342C140 34.057 138.07 32.1216 135.688 32.1216C133.306 32.1216 131.375 34.057 131.375 36.4342C131.375 38.8113 133.306 40.7467 135.688 40.7467Z" fill="#F3F5F6"/>
<path d="M131.375 26.757C133.002 26.757 134.32 25.4422 134.32 23.8119C134.32 22.1815 133.002 20.8667 131.375 20.8667C129.749 20.8667 128.43 22.1815 128.43 23.8119C128.43 25.4422 129.749 26.757 131.375 26.757Z" fill="#F3F5F6"/>
<path d="M12.0965 36.434C13.7227 36.434 15.0417 35.1192 15.0417 33.4889C15.0417 31.8585 13.7227 30.5437 12.0965 30.5437C10.4693 30.5437 9.15137 31.8585 9.15137 33.4889C9.15137 35.1192 10.4693 36.434 12.0965 36.434Z" fill="#F3F5F6"/>
<path d="M10.9392 95.7584C10.9392 95.8479 10.937 95.9374 10.9326 96.0268C10.9282 96.1162 10.9217 96.2055 10.9129 96.2945C10.9041 96.3836 10.8931 96.4724 10.88 96.561C10.8669 96.6495 10.8516 96.7377 10.8341 96.8255C10.8167 96.9133 10.7971 97.0006 10.7753 97.0874C10.7535 97.1743 10.7297 97.2605 10.7037 97.3462C10.6777 97.4318 10.6496 97.5168 10.6195 97.6011C10.5893 97.6854 10.5571 97.7689 10.5229 97.8515C10.4886 97.9343 10.4523 98.0161 10.4141 98.097C10.3758 98.1779 10.3356 98.2578 10.2934 98.3368C10.2512 98.4157 10.2071 98.4936 10.161 98.5704C10.115 98.6471 10.0672 98.7227 10.0174 98.7972C9.96769 98.8716 9.91616 98.9448 9.86284 99.0167C9.80952 99.0886 9.75446 99.1591 9.69767 99.2283C9.64088 99.2975 9.58243 99.3653 9.52231 99.4316C9.4622 99.4979 9.4005 99.5627 9.3372 99.626C9.27391 99.6893 9.2091 99.751 9.14278 99.8111C9.07645 99.8712 9.00868 99.9297 8.93949 99.9865C8.8703 100.043 8.79975 100.098 8.72784 100.152C8.65595 100.205 8.58278 100.257 8.50835 100.306C8.43392 100.356 8.35832 100.404 8.28154 100.45C8.20477 100.496 8.1269 100.54 8.04796 100.582C7.96902 100.624 7.88909 100.665 7.80817 100.703C7.72725 100.741 7.64544 100.777 7.56273 100.812C7.48004 100.846 7.39655 100.878 7.31227 100.908C7.22798 100.938 7.14301 100.967 7.05735 100.993C6.97169 101.018 6.88544 101.042 6.79862 101.064C6.71178 101.086 6.62447 101.105 6.53668 101.123C6.44888 101.14 6.36071 101.156 6.27217 101.169C6.18362 101.182 6.09481 101.193 6.00572 101.202C5.91664 101.211 5.82739 101.217 5.73799 101.221C5.64858 101.226 5.55912 101.228 5.46961 101.228C5.3801 101.228 5.29064 101.226 5.20123 101.221C5.11182 101.217 5.02258 101.211 4.93349 101.202C4.84441 101.193 4.75559 101.182 4.66705 101.169C4.5785 101.156 4.49033 101.14 4.40254 101.123C4.31475 101.105 4.22743 101.086 4.1406 101.064C4.05377 101.042 3.96753 101.018 3.88187 100.993C3.7962 100.967 3.71123 100.938 3.62695 100.908C3.54267 100.878 3.45918 100.846 3.37648 100.812C3.29378 100.777 3.21197 100.741 3.13105 100.703C3.05013 100.665 2.9702 100.624 2.89126 100.582C2.81231 100.54 2.73445 100.496 2.65767 100.45C2.58089 100.404 2.50528 100.356 2.43085 100.306C2.35643 100.257 2.28327 100.205 2.21136 100.152C2.13947 100.098 2.06892 100.043 1.99972 99.9865C1.93053 99.9297 1.86277 99.8712 1.79644 99.8111C1.73012 99.751 1.66531 99.6893 1.60201 99.626C1.53871 99.5627 1.47701 99.4979 1.41689 99.4316C1.35678 99.3653 1.29833 99.2975 1.24155 99.2283C1.18476 99.1591 1.1297 99.0886 1.07638 99.0167C1.02305 98.9448 0.971526 98.8716 0.921795 98.7972C0.872064 98.7227 0.824188 98.6471 0.778168 98.5704C0.732149 98.4936 0.688041 98.4157 0.645844 98.3368C0.603647 98.2578 0.563413 98.1779 0.525141 98.097C0.486869 98.0161 0.450605 97.9343 0.416349 97.8515C0.382094 97.7689 0.349888 97.6854 0.319731 97.6011C0.289575 97.5168 0.261504 97.4318 0.235519 97.3462C0.209535 97.2605 0.185668 97.1743 0.163917 97.0874C0.142167 97.0006 0.12256 96.9133 0.105097 96.8255C0.0876336 96.7377 0.0723347 96.6495 0.0592002 96.561C0.0460658 96.4724 0.0351116 96.3836 0.0263376 96.2945C0.0175638 96.2055 0.0109807 96.1162 0.00658838 96.0268C0.00219613 95.9374 0 95.8479 0 95.7584C0 95.6689 0.00219613 95.5795 0.00658838 95.49C0.0109807 95.4006 0.0175638 95.3114 0.0263376 95.2223C0.0351116 95.1332 0.0460658 95.0444 0.0592002 94.9559C0.0723347 94.8673 0.0876336 94.7792 0.105097 94.6914C0.12256 94.6036 0.142167 94.5163 0.163917 94.4294C0.185668 94.3426 0.209535 94.2563 0.235519 94.1707C0.261504 94.085 0.289575 94.0001 0.319731 93.9158C0.349888 93.8315 0.382094 93.748 0.416349 93.6653C0.450605 93.5826 0.486869 93.5008 0.525141 93.4199C0.563413 93.3389 0.603647 93.259 0.645844 93.1801C0.688041 93.1011 0.732149 93.0233 0.778168 92.9465C0.824188 92.8697 0.872064 92.7941 0.921795 92.7197C0.971526 92.6452 1.02305 92.5721 1.07638 92.5002C1.1297 92.4283 1.18476 92.3577 1.24155 92.2885C1.29833 92.2194 1.35678 92.1516 1.41689 92.0853C1.47701 92.0189 1.53871 91.9541 1.60201 91.8908C1.66531 91.8275 1.73012 91.7658 1.79644 91.7057C1.86277 91.6456 1.93053 91.5872 1.99972 91.5304C2.06892 91.4736 2.13947 91.4185 2.21136 91.3652C2.28327 91.3119 2.35643 91.2603 2.43085 91.2106C2.50528 91.1609 2.58089 91.113 2.65767 91.067C2.73445 91.021 2.81231 90.9769 2.89126 90.9347C2.9702 90.8925 3.05013 90.8522 3.13105 90.814C3.21197 90.7757 3.29378 90.7394 3.37648 90.7052C3.45918 90.6709 3.54267 90.6387 3.62695 90.6085C3.71123 90.5784 3.7962 90.5503 3.88187 90.5243C3.96753 90.4984 4.05377 90.4745 4.1406 90.4527C4.22743 90.431 4.31475 90.4114 4.40254 90.3939C4.49033 90.3764 4.5785 90.3612 4.66705 90.348C4.75559 90.3349 4.84441 90.3239 4.93349 90.3152C5.02258 90.3064 5.11182 90.2998 5.20123 90.2954C5.29064 90.291 5.3801 90.2888 5.46961 90.2888C5.55912 90.2888 5.64858 90.291 5.73799 90.2954C5.82739 90.2998 5.91664 90.3064 6.00572 90.3152C6.09481 90.3239 6.18362 90.3349 6.27217 90.348C6.36071 90.3612 6.44888 90.3764 6.53668 90.3939C6.62447 90.4114 6.71178 90.431 6.79862 90.4527C6.88544 90.4745 6.97169 90.4984 7.05735 90.5243C7.14301 90.5503 7.22798 90.5784 7.31227 90.6085C7.39655 90.6387 7.48004 90.6709 7.56273 90.7052C7.64544 90.7394 7.72725 90.7757 7.80817 90.814C7.88909 90.8522 7.96902 90.8925 8.04796 90.9347C8.1269 90.9769 8.20477 91.021 8.28154 91.067C8.35832 91.113 8.43392 91.1609 8.50835 91.2106C8.58278 91.2603 8.65595 91.3119 8.72784 91.3652C8.79975 91.4185 8.8703 91.4736 8.93949 91.5304C9.00868 91.5872 9.07645 91.6456 9.14278 91.7057C9.2091 91.7658 9.27391 91.8275 9.3372 91.8908C9.4005 91.9541 9.46221 92.0189 9.52232 92.0853C9.58243 92.1516 9.64088 92.2194 9.69767 92.2885C9.75445 92.3577 9.80951 92.4283 9.86284 92.5002C9.91616 92.5721 9.96769 92.6452 10.0174 92.7197C10.0672 92.7941 10.115 92.8697 10.161 92.9465C10.2071 93.0233 10.2512 93.1011 10.2934 93.1801C10.3356 93.259 10.3758 93.3389 10.4141 93.4199C10.4523 93.5008 10.4886 93.5826 10.5229 93.6653C10.5571 93.748 10.5893 93.8315 10.6195 93.9158C10.6496 94.0001 10.6777 94.085 10.7037 94.1707C10.7297 94.2563 10.7535 94.3426 10.7753 94.4294C10.7971 94.5163 10.8167 94.6036 10.8341 94.6914C10.8516 94.7792 10.8669 94.8673 10.88 94.9559C10.8931 95.0444 10.9041 95.1332 10.9129 95.2223C10.9217 95.3114 10.9282 95.4006 10.9326 95.49C10.937 95.5795 10.9392 95.6689 10.9392 95.7584Z" fill="#F3F5F6"/>
</svg>
