<svg width="56" height="56" viewBox="0 0 56 56" fill="none" xmlns="http://www.w3.org/2000/svg">
<g id="vuesax/bold/lock">
<path id="Vector" d="M27.9996 40.4834C30.1001 40.4834 31.803 38.7806 31.803 36.68C31.803 34.5795 30.1001 32.8767 27.9996 32.8767C25.8991 32.8767 24.1963 34.5795 24.1963 36.68C24.1963 38.7806 25.8991 40.4834 27.9996 40.4834Z" fill="#FFBE00"/>
<path id="Vector_2" d="M42.6537 22.2367V19.3201C42.6537 13.0201 41.137 4.66675 28.0003 4.66675C14.8637 4.66675 13.347 13.0201 13.347 19.3201V22.2367C6.81366 23.0534 4.66699 26.3667 4.66699 34.5101V38.8501C4.66699 48.4167 7.58366 51.3334 17.1503 51.3334H38.8503C48.417 51.3334 51.3337 48.4167 51.3337 38.8501V34.5101C51.3337 26.3667 49.187 23.0534 42.6537 22.2367ZM28.0003 43.7267C24.1037 43.7267 20.9537 40.5534 20.9537 36.6801C20.9537 32.7834 24.127 29.6334 28.0003 29.6334C31.8737 29.6334 35.047 32.8067 35.047 36.6801C35.047 40.5767 31.897 43.7267 28.0003 43.7267ZM17.1503 22.0267C16.9637 22.0267 16.8003 22.0267 16.6137 22.0267V19.3201C16.6137 12.4834 18.5503 7.93341 28.0003 7.93341C37.4503 7.93341 39.387 12.4834 39.387 19.3201V22.0501C39.2003 22.0501 39.037 22.0501 38.8503 22.0501H17.1503V22.0267Z" fill="#FFBE00"/>
</g>
</svg>
