<svg width="102" height="28" viewBox="0 0 102 28" fill="none" xmlns="http://www.w3.org/2000/svg">
<path d="M25.0481 0H11.1503C7.85256 0 4.49824 1.94726 3.66908 4.34051L0.176573 14.4223C-0.649443 16.8155 1.50197 19.9437 4.97249 21.3948L19.6084 27.5192C23.082 28.9702 26.4364 27.0261 27.0896 23.1787L29.8378 6.97245C30.4973 3.14074 28.3459 0 25.0481 0ZM27.1179 6.69921L24.2912 22.2679C23.9206 24.2968 22.0927 25.3678 20.18 24.6517L5.61635 19.1585C3.7319 18.4424 2.53527 16.7245 2.98126 15.3268L6.39525 4.61375C6.84124 3.21612 8.68486 2.14827 10.5065 2.22993L24.4797 2.85808C26.3044 2.9523 27.4854 4.67029 27.1179 6.69921Z" fill="white"/>
<path d="M7.94672 17.6384L8.64396 17.7232C10.3274 17.9085 11.7596 16.9192 12.0988 16.4669C12.438 16.0147 12.7521 15.107 13.1227 13.612L15.3212 4.73624L19.7182 5.11941L17.4412 15.3896C17.036 17.227 16.2665 18.3985 15.1359 18.8853C14.0052 19.3721 12.3249 19.1994 10.1107 18.4393C9.68355 18.2948 9.03655 18.0561 8.81356 17.9745C8.59057 17.8928 8.14144 17.7201 7.953 17.6416L7.94672 17.6384Z" fill="#FFBE00"/>
<path d="M42.1543 6.04584H44.6289V16.0013C44.6467 16.7251 44.572 17.4483 44.4065 18.1531C44.1301 19.1669 43.4923 20.0445 42.6134 20.6205C42.2249 20.8722 41.7913 21.0464 41.3367 21.1333C40.9169 21.2135 40.4908 21.2555 40.0635 21.2588C39.356 21.2777 38.6523 21.1482 37.9978 20.8787C37.4869 20.6638 37.0173 20.3616 36.6099 19.9857C36.2492 19.6304 35.9563 19.2124 35.7456 18.752C35.5611 18.3868 35.4225 18.0001 35.3332 17.6008L34.9567 16.0695L37.5101 15.987C37.5586 16.3774 37.6463 16.7618 37.7719 17.1346C37.9121 17.523 38.1611 17.8629 38.4891 18.1137C38.9518 18.4298 39.5083 18.5791 40.0671 18.5368C40.4649 18.5477 40.8606 18.4756 41.2291 18.3253C41.3851 18.2559 41.5247 18.1542 41.6384 18.0268C41.7522 17.8994 41.8376 17.7494 41.8889 17.5865C42.006 17.2551 42.0948 16.9144 42.1543 16.568C42.209 16.1591 42.2342 15.7468 42.2296 15.3343L42.1543 6.04584Z" fill="white"/>
<path d="M56.8689 14.1723C57.1302 14.4929 57.333 14.8571 57.4678 15.2482C57.646 15.7688 57.7061 16.3225 57.6435 16.8692C57.6683 17.7355 57.447 18.591 57.0052 19.3365C56.6342 19.9726 56.0477 20.4548 55.3519 20.6957C54.588 20.9374 53.7896 21.0525 52.9886 21.0364H46.3217V6.0458H53.8277C54.2871 6.03973 54.7442 6.11126 55.1798 6.25739C55.5953 6.41039 55.9775 6.6417 56.3059 6.93878C56.6665 7.26887 56.9484 7.67577 57.1307 8.12943C57.3423 8.67188 57.4447 9.25079 57.432 9.83291C57.4405 10.4217 57.3644 11.0087 57.206 11.5758C57.0653 11.9892 56.8351 12.3663 56.5318 12.6804L56.0046 13.2829C56.3561 13.6164 56.643 13.9141 56.8689 14.1723ZM48.7245 12.1712H53.3866C53.5715 12.1648 53.7523 12.1155 53.9148 12.0271C54.0773 11.9387 54.2169 11.8137 54.3227 11.6619C54.5833 11.3635 54.7295 10.9822 54.7351 10.586C54.7411 10.2866 54.7159 9.98727 54.6598 9.69304C54.6025 9.45083 54.4782 9.22963 54.3011 9.05469C54.1904 8.9526 54.0604 8.87367 53.9188 8.82255C53.7771 8.77144 53.6267 8.74916 53.4763 8.75702H48.7245V12.1712ZM48.7245 14.8071V18.3037H53.7453C53.9418 18.3041 54.135 18.2534 54.3061 18.1566C54.4771 18.0598 54.62 17.9201 54.7207 17.7514C54.9769 17.3622 55.0839 16.8935 55.022 16.4317C55.0279 16.1942 54.9844 15.9581 54.8943 15.7383C54.8042 15.5185 54.6693 15.3199 54.4984 15.1549C54.2212 14.9294 53.8766 14.8031 53.5193 14.7963L48.7245 14.8071Z" fill="white"/>
<path d="M68.6212 11.2351C68.571 11.0666 68.51 10.8765 68.4347 10.6398C68.3008 10.3243 68.1099 10.0362 67.8716 9.78984C67.5744 9.43472 67.2065 9.14546 66.7912 8.94051C66.376 8.73555 65.9225 8.61942 65.4599 8.59951C64.9973 8.5796 64.5355 8.65635 64.1042 8.82487C63.6729 8.99339 63.2814 9.24998 62.9548 9.57825C62.4401 10.0976 62.0427 10.7213 61.7893 11.4073C61.5347 12.145 61.4132 12.9222 61.4307 13.7025C61.4152 14.451 61.5156 15.1974 61.7283 15.9152C61.9492 16.6155 62.3661 17.2378 62.9297 17.7083C63.535 18.186 64.2641 18.4809 65.0313 18.5583C65.6114 18.628 66.1991 18.5245 66.7204 18.2606C67.1935 18.0061 67.5944 17.6359 67.886 17.1848C68.1511 16.8057 68.3277 16.3718 68.4024 15.9152L68.6283 14.9792H71.2571C71.1567 15.6032 71.0562 16.1411 70.9558 16.5966C70.8099 17.1724 70.5956 17.7286 70.3175 18.2535C70.0244 18.8637 69.6179 19.4126 69.1197 19.8709C68.6382 20.3007 68.0779 20.6332 67.47 20.8499C66.682 21.1065 65.8562 21.2278 65.0277 21.2086C64.3287 21.2231 63.632 21.1226 62.9656 20.9109C61.6675 20.4532 60.5902 19.5219 59.9495 18.3037C59.577 17.6277 59.2994 16.9037 59.1247 16.1519C58.9431 15.3277 58.8552 14.4855 58.8629 13.6415C58.8531 12.5706 59.0303 11.5063 59.3865 10.4963C59.6997 9.60135 60.1873 8.77736 60.821 8.07201C61.3641 7.46323 62.0129 6.95779 62.7361 6.58012C63.4983 6.2229 64.3333 6.04852 65.1747 6.07087C65.9263 6.00933 66.6823 6.11087 67.3911 6.36853C68.0422 6.61193 68.641 6.97706 69.1555 7.44441C69.6378 7.87798 70.0546 8.37932 70.3928 8.93272C70.6717 9.36708 70.8867 9.83934 71.0311 10.335L71.1818 11.271L68.6212 11.2351Z" fill="white"/>
<path d="M72.896 6.88855L75.5749 7.37987C75.5593 7.55137 75.5106 7.71821 75.4315 7.87119C75.3069 8.03824 75.2323 8.23722 75.2163 8.44499V17.8733H75.3598C77.1569 17.2633 78.861 16.4076 80.4236 15.3307C82.3503 14.0355 84.1217 12.5229 85.7026 10.8227L86.2083 12.8741V13.0354C83.926 15.5634 81.1746 17.6242 78.1069 19.1034C78.01 19.1572 77.8415 19.2397 77.6012 19.3473C76.9999 19.6343 76.4198 19.9639 75.8654 20.3335C75.3786 20.4676 74.9475 20.7542 74.6353 21.1512H74.4991L72.7633 19.1034V19.0209C72.8509 18.7796 72.9228 18.5328 72.9785 18.2822C73.024 18.0942 73.0481 17.9017 73.0502 17.7084V8.52748C73.0422 7.97795 72.9906 7.42993 72.896 6.88855Z" fill="white"/>
<path d="M86.9183 12.4114L88.0301 11.0056H88.1592C88.3313 11.1563 88.5931 11.3643 88.941 11.5974C89.7229 12.1129 90.4446 12.7144 91.0928 13.3905L89.7228 15.0187C88.9087 14.0282 87.9655 13.1513 86.9183 12.4114ZM100.815 11.5974L101.532 13.3905V13.5375C100.073 15.129 98.4308 16.5433 96.6407 17.7514C94.796 19.0075 92.8007 20.0268 90.7019 20.7854C90.4585 20.9812 90.1654 21.1054 89.8555 21.144C89.6234 21.206 89.403 21.3054 89.2028 21.4381C89.1301 21.5318 89.0654 21.6314 89.0091 21.7358C88.9195 21.8828 88.8334 21.9545 88.7473 21.9545L87.6392 19.4441L87.7683 19.2971C88.3779 19.2003 88.9625 19.0748 89.5291 18.9385C90.0958 18.8022 90.8345 18.3969 91.8782 17.9056C92.3982 17.6582 92.7927 17.486 93.0509 17.3856C93.3091 17.2852 93.6175 17.027 94.0945 16.7222C94.6815 16.4415 95.2483 16.1204 95.7908 15.761C97.63 14.5844 99.3174 13.186 100.815 11.5974ZM89.4 7.9035L90.3791 6.42236C91.29 6.86706 92.4197 7.73016 93.7681 9.01166L92.4663 10.4139C91.5643 9.44031 90.5325 8.59557 89.4 7.9035ZM96.2498 9.67512V9.52808L97.1607 8.64227C97.1607 8.54185 97.2038 8.54185 97.2934 8.64227C97.8495 9.01791 98.3535 9.46527 98.7925 9.97278C98.9646 10.1198 99.0543 10.2418 99.0543 10.3314C99.0522 10.3868 99.0291 10.4394 98.9898 10.4784L98.9216 10.5538C98.7314 10.8652 98.4615 11.1202 98.1398 11.2925C98.1398 11.3427 98.1183 11.3427 98.0752 11.2925C97.7692 11.0534 97.3341 10.6841 96.7698 10.1844C96.6111 10.0003 96.4372 9.82994 96.2498 9.67512ZM97.878 7.9035L98.6634 6.79175C98.9707 6.92037 99.2562 7.09579 99.5098 7.31176C99.6028 7.42596 99.7129 7.52515 99.8361 7.60584C100.083 7.89007 100.344 8.16177 100.618 8.41992V8.64227L99.707 9.52808C99.707 9.57829 99.664 9.57829 99.5743 9.52808C99.3078 9.24096 99.0252 8.96916 98.728 8.714C98.4667 8.44345 98.1823 8.19625 97.878 7.97522V7.9035Z" fill="white"/>
</svg>
