<svg width="20" height="21" viewBox="0 0 20 21" fill="none" xmlns="http://www.w3.org/2000/svg">
<g id="vuesax/bold/lock">
<path id="Vector" d="M10.0001 15.4083C10.7502 15.4083 11.3584 14.8002 11.3584 14.05C11.3584 13.2998 10.7502 12.6917 10.0001 12.6917C9.24987 12.6917 8.64172 13.2998 8.64172 14.05C8.64172 14.8002 9.24987 15.4083 10.0001 15.4083Z" fill="#292D32"/>
<path id="Vector_2" d="M15.2333 8.89168V7.85001C15.2333 5.60001 14.6916 2.61668 9.99996 2.61668C5.30829 2.61668 4.76663 5.60001 4.76663 7.85001V8.89168C2.43329 9.18334 1.66663 10.3667 1.66663 13.275V14.825C1.66663 18.2417 2.70829 19.2833 6.12496 19.2833H13.875C17.2916 19.2833 18.3333 18.2417 18.3333 14.825V13.275C18.3333 10.3667 17.5666 9.18334 15.2333 8.89168ZM9.99996 16.5667C8.60829 16.5667 7.48329 15.4333 7.48329 14.05C7.48329 12.6583 8.61663 11.5333 9.99996 11.5333C11.3833 11.5333 12.5166 12.6667 12.5166 14.05C12.5166 15.4417 11.3916 16.5667 9.99996 16.5667ZM6.12496 8.81668C6.05829 8.81668 5.99996 8.81668 5.93329 8.81668V7.85001C5.93329 5.40834 6.62496 3.78334 9.99996 3.78334C13.375 3.78334 14.0666 5.40834 14.0666 7.85001V8.82501C14 8.82501 13.9416 8.82501 13.875 8.82501H6.12496V8.81668Z" fill="#292D32"/>
</g>
</svg>
