<svg width="140" height="39" viewBox="0 0 140 39" fill="none" xmlns="http://www.w3.org/2000/svg">
<path d="M34.1716 0.950012H15.3103C10.8347 0.950012 6.28243 3.59272 5.15714 6.8407L0.417308 20.5231C-0.703714 23.7711 2.21606 28.0165 6.92606 29.9857L26.789 38.2975C31.5033 40.2667 36.0556 37.6283 36.9422 32.4068L40.6718 10.4126C41.5669 5.21245 38.6471 0.950012 34.1716 0.950012ZM36.9805 10.0418L33.1443 31.1707C32.6414 33.9242 30.1606 35.3777 27.5648 34.4059L7.79986 26.9509C5.24239 25.9791 3.6184 23.6475 4.22367 21.7507L8.85694 7.21153C9.46221 5.31475 11.9643 3.86552 14.4365 3.97634L33.4001 4.82883C35.8766 4.9567 37.4792 7.28826 36.9805 10.0418Z" fill="#100A05"/>
<path d="M10.9625 24.8879L11.9088 25.003C14.1934 25.2545 16.1371 23.9118 16.5974 23.298C17.0578 22.6842 17.484 21.4524 17.987 19.4235L20.9707 7.37781L26.9381 7.89782L23.8478 21.836C23.298 24.3295 22.2537 25.9194 20.7192 26.5801C19.1847 27.2408 16.9043 27.0063 13.8993 25.9748C13.3196 25.7788 12.4416 25.4548 12.1389 25.344C11.8363 25.2332 11.2268 24.9987 10.971 24.8922L10.9625 24.8879Z" fill="#FFBE00"/>
<path d="M59.2378 9.15497H62.5961V22.666C62.6203 23.6483 62.5189 24.6297 62.2944 25.5863C61.9192 26.9621 61.0536 28.1532 59.8608 28.9348C59.3336 29.2765 58.7452 29.5128 58.1281 29.6308C57.5585 29.7397 56.9802 29.7967 56.4003 29.8012C55.4401 29.8267 54.4851 29.651 53.5969 29.2853C52.9035 28.9936 52.2661 28.5835 51.7133 28.0734C51.2238 27.5912 50.8263 27.0238 50.5403 26.3991C50.2898 25.9035 50.1018 25.3787 49.9806 24.8367L49.4696 22.7585L52.9349 22.6466C53.0008 23.1763 53.1198 23.6981 53.2902 24.204C53.4805 24.7312 53.8184 25.1924 54.2637 25.5327C54.8916 25.9618 55.6468 26.1644 56.4052 26.1071C56.9451 26.1217 57.4821 26.0239 57.9821 25.8199C58.1939 25.7258 58.3833 25.5877 58.5377 25.4149C58.6921 25.242 58.808 25.0383 58.8777 24.8173C59.0365 24.3675 59.157 23.9051 59.2378 23.435C59.3121 22.8801 59.3462 22.3206 59.34 21.7607L59.2378 9.15497Z" fill="#100A05"/>
<path d="M79.2076 20.1839C79.5622 20.619 79.8374 21.1133 80.0204 21.644C80.2622 22.3505 80.3437 23.102 80.2589 23.8439C80.2925 25.0196 79.9921 26.1807 79.3925 27.1925C78.8891 28.0558 78.0931 28.7102 77.1488 29.0371C76.112 29.3651 75.0286 29.5213 73.9414 29.4995H64.8934V9.15506H75.0803C75.7037 9.14682 76.3241 9.2439 76.9152 9.44221C77.4791 9.64986 77.9979 9.96379 78.4434 10.367C78.9329 10.8149 79.3155 11.3672 79.5629 11.9828C79.85 12.719 79.989 13.5047 79.9717 14.2947C79.9833 15.0938 79.88 15.8904 79.6651 16.6601C79.4741 17.2211 79.1617 17.7329 78.7501 18.1592L78.0346 18.9768C78.5116 19.4295 78.9009 19.8335 79.2076 20.1839ZM68.1544 17.4681H74.4816C74.7325 17.4594 74.9779 17.3925 75.1984 17.2725C75.4189 17.1526 75.6084 16.9829 75.7519 16.7769C76.1057 16.372 76.3041 15.8545 76.3116 15.3168C76.3198 14.9104 76.2856 14.5042 76.2094 14.1049C76.1317 13.7762 75.963 13.476 75.7227 13.2385C75.5725 13.1 75.396 12.9929 75.2038 12.9235C75.0116 12.8541 74.8074 12.8239 74.6033 12.8346H68.1544V17.4681ZM68.1544 21.0454V25.7908H74.9683C75.235 25.7914 75.4973 25.7226 75.7294 25.5912C75.9615 25.4598 76.1554 25.2702 76.2922 25.0412C76.6399 24.513 76.7851 23.8769 76.701 23.2502C76.7091 22.9279 76.6501 22.6074 76.5278 22.3092C76.4054 22.0109 76.2224 21.7413 75.9904 21.5175C75.6143 21.2114 75.1465 21.04 74.6617 21.0308L68.1544 21.0454Z" fill="#100A05"/>
<path d="M95.157 16.1978C95.0889 15.969 95.0061 15.711 94.9039 15.3898C94.7222 14.9616 94.4632 14.5706 94.1398 14.2363C93.7365 13.7544 93.2371 13.3618 92.6735 13.0836C92.11 12.8055 91.4946 12.6479 90.8667 12.6209C90.2389 12.5938 89.6123 12.698 89.0269 12.9267C88.4415 13.1554 87.9103 13.5036 87.467 13.9492C86.7685 14.654 86.2291 15.5005 85.8852 16.4314C85.5396 17.4326 85.3748 18.4874 85.3985 19.5463C85.3776 20.5621 85.5138 21.5751 85.8025 22.5493C86.1022 23.4997 86.668 24.3442 87.4329 24.9829C88.2544 25.6311 89.2439 26.0313 90.2851 26.1364C91.0723 26.231 91.87 26.0904 92.5775 25.7324C93.2194 25.3869 93.7636 24.8846 94.1593 24.2723C94.5191 23.7578 94.7587 23.1689 94.8601 22.5493L95.1668 21.279H98.7343C98.5981 22.1259 98.4618 22.8559 98.3255 23.4741C98.1274 24.2555 97.8366 25.0104 97.4592 25.7227C97.0614 26.5508 96.5097 27.2958 95.8335 27.9177C95.1801 28.5011 94.4198 28.9523 93.5947 29.2464C92.5253 29.5947 91.4046 29.7592 90.2802 29.7331C89.3315 29.7529 88.386 29.6164 87.4816 29.3292C85.7199 28.708 84.2578 27.4442 83.3884 25.7908C82.8828 24.8735 82.5061 23.8908 82.269 22.8705C82.0224 21.7519 81.9032 20.609 81.9137 19.4636C81.9003 18.0102 82.1408 16.5658 82.6243 15.1951C83.0493 13.9805 83.711 12.8622 84.5711 11.905C85.3082 11.0788 86.1887 10.3928 87.1701 9.88026C88.2045 9.39547 89.3378 9.15881 90.4797 9.18914C91.4998 9.10562 92.5258 9.24342 93.4876 9.59311C94.3712 9.92343 95.1839 10.419 95.8822 11.0532C96.5368 11.6416 97.1024 12.322 97.5614 13.0731C97.94 13.6626 98.2317 14.3035 98.4277 14.9761L98.6321 16.2464L95.157 16.1978Z" fill="#100A05"/>
<path d="M100.959 10.2988L104.594 10.9656C104.573 11.1983 104.507 11.4247 104.4 11.6324C104.231 11.8591 104.129 12.1291 104.108 12.4111V25.2067H104.302C106.741 24.3788 109.054 23.2175 111.175 21.7559C113.789 19.9981 116.193 17.9453 118.339 15.638L119.025 18.4219V18.641C115.928 22.0718 112.194 24.8686 108.03 26.8761C107.899 26.9491 107.67 27.061 107.344 27.207C106.528 27.5966 105.741 28.0439 104.989 28.5455C104.328 28.7275 103.743 29.1164 103.319 29.6552H103.134L100.779 26.8761V26.7641C100.897 26.4366 100.995 26.1017 101.071 25.7615C101.132 25.5065 101.165 25.2452 101.168 24.9828V12.523C101.157 11.7772 101.087 11.0335 100.959 10.2988Z" fill="#100A05"/>
<path d="M119.989 17.7942L121.498 15.8863H121.673C121.907 16.0907 122.262 16.373 122.734 16.6893C123.795 17.389 124.775 18.2053 125.654 19.1229L123.795 21.3325C122.69 19.9883 121.41 18.7982 119.989 17.7942ZM138.849 16.6893L139.822 19.1229V19.3224C137.841 21.4822 135.613 23.4017 133.184 25.0413C130.68 26.7459 127.972 28.1292 125.124 29.1588C124.793 29.4246 124.396 29.5931 123.975 29.6455C123.66 29.7297 123.361 29.8645 123.089 30.0446C122.991 30.1718 122.903 30.3069 122.826 30.4486C122.705 30.6481 122.588 30.7455 122.471 30.7455L120.967 27.3385L121.142 27.139C121.97 27.0076 122.763 26.8372 123.532 26.6523C124.301 26.4673 125.304 25.9173 126.72 25.2505C127.426 24.9147 127.961 24.6811 128.312 24.5448C128.662 24.4085 129.081 24.0581 129.728 23.6444C130.525 23.2636 131.294 22.8277 132.03 22.34C134.526 20.7432 136.816 18.8454 138.849 16.6893ZM123.357 11.6762L124.686 9.66611C125.922 10.2696 127.455 11.441 129.285 13.1801L127.518 15.0832C126.294 13.7619 124.894 12.6155 123.357 11.6762ZM132.653 14.0806V13.881L133.889 12.6788C133.889 12.5426 133.948 12.5426 134.069 12.6788C134.824 13.1886 135.508 13.7958 136.104 14.4845C136.338 14.6841 136.459 14.8496 136.459 14.9712C136.456 15.0465 136.425 15.1178 136.372 15.1708L136.279 15.273C136.021 15.6956 135.655 16.0417 135.218 16.2756C135.218 16.3438 135.189 16.3438 135.13 16.2756C134.715 15.9511 134.125 15.4498 133.359 14.7717C133.143 14.5219 132.907 14.2907 132.653 14.0806ZM134.863 11.6762L135.929 10.1674C136.346 10.342 136.733 10.58 137.077 10.8731C137.204 11.0281 137.353 11.1627 137.52 11.2722C137.855 11.658 138.209 12.0267 138.581 12.3771V12.6788L137.345 13.881C137.345 13.9491 137.287 13.9491 137.165 13.881C136.803 13.4913 136.42 13.1225 136.016 12.7762C135.662 12.409 135.276 12.0735 134.863 11.7736V11.6762Z" fill="#100A05"/>
</svg>
