<svg width="150" height="38" viewBox="0 0 150 38" fill="none" xmlns="http://www.w3.org/2000/svg">
<path d="M43.75 1.52588e-05H0.0500031C0.0500031 8.00002 6.55 14.5 14.55 14.5H19.55C18.75 16.8 18.25 19.2 18.25 21.8C18.25 30.6 23.85 36.4 28.55 36.4C33.25 36.4 36.85 33.1 37.55 28.7C34.75 27.7 32.75 25 32.75 21.8C32.75 17 37.05 14.5 40.05 14.5C42.45 14.5 44.55 15.7 45.85 17.4C48.55 15.3 50.95 10.9 50.95 7.20001C50.95 3.20001 47.75 1.52588e-05 43.75 1.52588e-05Z" fill="url(#paint0_linear_12_1078)"/>
<mask id="mask0_12_1078" style="mask-type:luminance" maskUnits="userSpaceOnUse" x="0" y="0" width="51" height="37">
<path d="M43.75 1.52588e-05H0.0500031C0.0500031 8.00002 6.55 14.5 14.55 14.5H19.55C18.75 16.8 18.25 19.2 18.25 21.8C18.25 30.6 23.85 36.4 28.55 36.4C33.25 36.4 36.85 33.1 37.55 28.7C34.75 27.7 32.75 25 32.75 21.8C32.75 17 37.05 14.5 40.05 14.5C42.45 14.5 44.55 15.7 45.85 17.4C48.55 15.3 50.95 10.9 50.95 7.20001C50.95 3.20001 47.75 1.52588e-05 43.75 1.52588e-05Z" fill="white"/>
</mask>
<g mask="url(#mask0_12_1078)">
<path d="M66.25 -31.7C66.25 -9.19999 48.05 9.10001 25.45 9.10001C2.85 9.10001 -15.25 -9.09999 -15.25 -31.7C-15.25 -54.3 3.05 -72.4 25.55 -72.4C34.65 -72.4 47.15 -73.1 53.95 -68C63.85 -60.6 66.25 -45.1 66.25 -31.7Z" fill="url(#paint1_linear_12_1078)"/>
</g>
<mask id="mask1_12_1078" style="mask-type:luminance" maskUnits="userSpaceOnUse" x="0" y="0" width="51" height="37">
<path d="M43.75 1.52588e-05H0.0500031C0.0500031 8.00002 6.55 14.5 14.55 14.5H19.55C18.75 16.8 18.25 19.2 18.25 21.8C18.25 30.6 23.85 36.4 28.55 36.4C33.25 36.4 36.85 33.1 37.55 28.7C34.75 27.7 32.75 25 32.75 21.8C32.75 17 37.05 14.5 40.05 14.5C42.45 14.5 44.55 15.7 45.85 17.4C48.55 15.3 50.95 10.9 50.95 7.20001C50.95 3.20001 47.75 1.52588e-05 43.75 1.52588e-05Z" fill="white"/>
</mask>
<g mask="url(#mask1_12_1078)">
<path d="M61.05 21.4C61.05 33.2 51.45 42.8 39.65 42.8C27.85 42.8 18.25 33.2 18.25 21.4C18.25 9.60002 27.85 2.35364e-05 39.65 2.35364e-05C44.45 2.35364e-05 50.95 -0.399973 54.55 2.30003C59.85 6.20003 61.05 14.3 61.05 21.4Z" fill="url(#paint2_linear_12_1078)"/>
</g>
<mask id="mask2_12_1078" style="mask-type:luminance" maskUnits="userSpaceOnUse" x="0" y="0" width="51" height="37">
<path d="M43.75 1.52588e-05H0.0500031C0.0500031 8.00002 6.55 14.5 14.55 14.5H19.55C18.75 16.8 18.25 19.2 18.25 21.8C18.25 30.6 23.85 36.4 28.55 36.4C33.25 36.4 36.85 33.1 37.55 28.7C34.75 27.7 32.75 25 32.75 21.8C32.75 17 37.05 14.5 40.05 14.5C42.45 14.5 44.55 15.7 45.85 17.4C48.55 15.3 50.95 10.9 50.95 7.20001C50.95 3.20001 47.75 1.52588e-05 43.75 1.52588e-05Z" fill="white"/>
</mask>
<g mask="url(#mask2_12_1078)">
<path d="M43.65 29.9C52.1 29.9 58.95 23.05 58.95 14.6C58.95 6.15006 52.1 -0.699982 43.65 -0.699982C35.2001 -0.699982 28.35 6.15006 28.35 14.6C28.35 23.05 35.2001 29.9 43.65 29.9Z" fill="url(#paint3_linear_12_1078)"/>
</g>
<path d="M66.15 30V7.40002H58.05V2.80002H79.65V7.40002H71.55V30H66.15Z" fill="black"/>
<path d="M82.55 7.60001V2.80002H87.75V7.60001H82.55ZM82.55 30V10.3H87.75V30H82.55Z" fill="black"/>
<path d="M92.65 31.3L98.65 32C98.75 32.7 98.95 33.2 99.35 33.4C99.85 33.8 100.65 34 101.65 34C103.05 34 104.05 33.8 104.75 33.4C105.25 33.1 105.55 32.7 105.75 32.1C105.95 31.7 105.95 30.9 105.95 29.7V26.8C104.35 28.9 102.45 30 100.05 30C97.45 30 95.35 28.9 93.75 26.6C92.55 24.8 91.95 22.6 91.95 20C91.95 16.7 92.75 14.2 94.35 12.4C95.95 10.7 97.95 9.80002 100.25 9.80002C102.55 9.80002 104.75 10.9 106.25 13V10.2H111.15V27.9C111.15 30.2 110.95 32 110.55 33.1C110.15 34.3 109.65 35.2 108.95 35.8C108.25 36.5 107.35 37 106.15 37.3C104.95 37.7 103.55 37.9 101.75 37.9C98.45 37.9 96.05 37.3 94.65 36.2C93.25 35.1 92.55 33.6 92.55 31.8C92.65 31.8 92.65 31.6 92.65 31.3ZM97.25 19.8C97.25 21.9 97.65 23.4 98.45 24.4C99.25 25.4 100.25 25.9 101.45 25.9C102.75 25.9 103.85 25.4 104.65 24.4C105.55 23.4 105.95 21.9 105.95 20C105.95 18 105.55 16.4 104.65 15.5C103.85 14.5 102.75 14 101.45 14C100.15 14 99.15 14.5 98.35 15.5C97.65 16.3 97.25 17.8 97.25 19.8Z" fill="black"/>
<path d="M127.75 23.8L132.95 24.7C132.25 26.6 131.25 28.1 129.75 29.1C128.35 30.1 126.55 30.6 124.35 30.6C120.95 30.6 118.35 29.5 116.75 27.2C115.45 25.4 114.85 23.1 114.85 20.4C114.85 17.1 115.75 14.6 117.45 12.7C119.15 10.8 121.35 9.90002 123.95 9.90002C126.85 9.90002 129.15 10.9 130.85 12.8C132.55 14.7 133.35 17.7 133.25 21.7H120.15C120.15 23.2 120.65 24.5 121.45 25.3C122.25 26.2 123.25 26.6 124.45 26.6C125.25 26.6 125.95 26.4 126.55 25.9C127.05 25.5 127.45 24.7 127.75 23.8ZM128.05 18.5C128.05 17 127.65 15.8 126.85 15.1C126.15 14.3 125.25 13.9 124.15 13.9C123.05 13.9 122.05 14.3 121.35 15.1C120.65 15.9 120.25 17.1 120.25 18.5H128.05Z" fill="black"/>
<path d="M142.45 30H137.25V10.3H142.05V13.1C142.85 11.8 143.65 10.9 144.25 10.5C144.95 10.1 145.65 9.90002 146.55 9.90002C147.75 9.90002 148.85 10.2 149.95 10.9L148.35 15.4C147.45 14.8 146.65 14.5 145.85 14.5C145.15 14.5 144.55 14.7 143.95 15.1C143.45 15.5 143.05 16.2 142.75 17.3C142.45 18.4 142.35 20.6 142.35 23.9L142.45 30Z" fill="black"/>
<defs>
<linearGradient id="paint0_linear_12_1078" x1="10.12" y1="21.32" x2="47.7" y2="-0.379982" gradientUnits="userSpaceOnUse">
<stop stop-color="#E48E00"/>
<stop offset="0.19" stop-color="#F6AB00"/>
<stop offset="0.32" stop-color="#FABE00"/>
<stop offset="0.47" stop-color="#FDD108"/>
</linearGradient>
<linearGradient id="paint1_linear_12_1078" x1="5.08" y1="3.68" x2="48.39" y2="-71.33" gradientUnits="userSpaceOnUse">
<stop stop-color="#FDD000" stop-opacity="0.2"/>
<stop offset="0.5" stop-color="#E48E00"/>
</linearGradient>
<linearGradient id="paint2_linear_12_1078" x1="21.12" y1="32.1" x2="59.96" y2="9.67002" gradientUnits="userSpaceOnUse">
<stop stop-color="#E48E00"/>
<stop offset="0.07" stop-color="#F39800"/>
<stop offset="0.18" stop-color="#F6AB00"/>
<stop offset="0.6" stop-color="#FDD108"/>
</linearGradient>
<linearGradient id="paint3_linear_12_1078" x1="28.35" y1="14.6" x2="58.92" y2="14.6" gradientUnits="userSpaceOnUse">
<stop stop-color="#FDD108"/>
<stop offset="1" stop-color="#E48E00"/>
</linearGradient>
</defs>
</svg>
