<svg width="64" height="64" viewBox="0 0 64 64" fill="none" xmlns="http://www.w3.org/2000/svg">
<path d="M50.7 14H7C7 22 13.5 28.5 21.5 28.5H26.5C25.7 30.8 25.2 33.2 25.2 35.8C25.2 44.6 30.8 50.4 35.5 50.4C40.2 50.4 43.8 47.1 44.5 42.7C41.7 41.7 39.7 39 39.7 35.8C39.7 31 44 28.5 47 28.5C49.4 28.5 51.5 29.7 52.8 31.4C55.5 29.3 57.9 24.9 57.9 21.2C57.9 17.2 54.7 14 50.7 14Z" fill="url(#paint0_linear_12_2012)"/>
<mask id="mask0_12_2012" style="mask-type:luminance" maskUnits="userSpaceOnUse" x="7" y="14" width="51" height="37">
<path d="M50.7 14H7C7 22 13.5 28.5 21.5 28.5H26.5C25.7 30.8 25.2 33.2 25.2 35.8C25.2 44.6 30.8 50.4 35.5 50.4C40.2 50.4 43.8 47.1 44.5 42.7C41.7 41.7 39.7 39 39.7 35.8C39.7 31 44 28.5 47 28.5C49.4 28.5 51.5 29.7 52.8 31.4C55.5 29.3 57.9 24.9 57.9 21.2C57.9 17.2 54.7 14 50.7 14Z" fill="white"/>
</mask>
<g mask="url(#mask0_12_2012)">
<path d="M73.2 -17.7C73.2 4.79998 55 23.1 32.4 23.1C9.80001 23.1 -8.29999 4.89998 -8.29999 -17.7C-8.29999 -40.3 10 -58.4 32.5 -58.4C41.6 -58.4 54.1 -59.1 60.9 -54C70.8 -46.6 73.2 -31.1 73.2 -17.7Z" fill="url(#paint1_linear_12_2012)"/>
</g>
<mask id="mask1_12_2012" style="mask-type:luminance" maskUnits="userSpaceOnUse" x="7" y="14" width="51" height="37">
<path d="M50.7 14H7C7 22 13.5 28.5 21.5 28.5H26.5C25.7 30.8 25.2 33.2 25.2 35.8C25.2 44.6 30.8 50.4 35.5 50.4C40.2 50.4 43.8 47.1 44.5 42.7C41.7 41.7 39.7 39 39.7 35.8C39.7 31 44 28.5 47 28.5C49.4 28.5 51.5 29.7 52.8 31.4C55.5 29.3 57.9 24.9 57.9 21.2C57.9 17.2 54.7 14 50.7 14Z" fill="white"/>
</mask>
<g mask="url(#mask1_12_2012)">
<path d="M68 35.4C68 47.2 58.4 56.8 46.6 56.8C34.8 56.8 25.2 47.2 25.2 35.4C25.2 23.6 34.8 14 46.6 14C51.4 14 57.9 13.6 61.5 16.3C66.8 20.2 68 28.3 68 35.4Z" fill="url(#paint2_linear_12_2012)"/>
</g>
<mask id="mask2_12_2012" style="mask-type:luminance" maskUnits="userSpaceOnUse" x="7" y="14" width="51" height="37">
<path d="M50.7 14H7C7 22 13.5 28.5 21.5 28.5H26.5C25.7 30.8 25.2 33.2 25.2 35.8C25.2 44.6 30.8 50.4 35.5 50.4C40.2 50.4 43.8 47.1 44.5 42.7C41.7 41.7 39.7 39 39.7 35.8C39.7 31 44 28.5 47 28.5C49.4 28.5 51.5 29.7 52.8 31.4C55.5 29.3 57.9 24.9 57.9 21.2C57.9 17.2 54.7 14 50.7 14Z" fill="white"/>
</mask>
<g mask="url(#mask2_12_2012)">
<path d="M50.6 43.9C59.0499 43.9 65.9 37.0499 65.9 28.6C65.9 20.15 59.0499 13.3 50.6 13.3C42.15 13.3 35.3 20.15 35.3 28.6C35.3 37.0499 42.15 43.9 50.6 43.9Z" fill="url(#paint3_linear_12_2012)"/>
</g>
<defs>
<linearGradient id="paint0_linear_12_2012" x1="17.07" y1="35.32" x2="54.65" y2="13.62" gradientUnits="userSpaceOnUse">
<stop stop-color="#E48E00"/>
<stop offset="0.19" stop-color="#F6AB00"/>
<stop offset="0.32" stop-color="#FABE00"/>
<stop offset="0.47" stop-color="#FDD108"/>
</linearGradient>
<linearGradient id="paint1_linear_12_2012" x1="12.03" y1="17.68" x2="55.34" y2="-57.33" gradientUnits="userSpaceOnUse">
<stop stop-color="#FDD000" stop-opacity="0.2"/>
<stop offset="0.5" stop-color="#E48E00"/>
</linearGradient>
<linearGradient id="paint2_linear_12_2012" x1="28.07" y1="46.1" x2="66.91" y2="23.67" gradientUnits="userSpaceOnUse">
<stop stop-color="#E48E00"/>
<stop offset="0.07" stop-color="#F39800"/>
<stop offset="0.18" stop-color="#F6AB00"/>
<stop offset="0.6" stop-color="#FDD108"/>
</linearGradient>
<linearGradient id="paint3_linear_12_2012" x1="35.3" y1="28.6" x2="65.87" y2="28.6" gradientUnits="userSpaceOnUse">
<stop stop-color="#FDD108"/>
<stop offset="1" stop-color="#E48E00"/>
</linearGradient>
</defs>
</svg>
