<svg width="140" height="134" viewBox="0 0 140 134" fill="none" xmlns="http://www.w3.org/2000/svg">
<g id="Frame" clip-path="url(#clip0_171_23078)">
<g id="Group">
<g id="Group_2">
<path id="Vector" d="M137.284 70.4088C137.284 71.4245 137.258 72.4395 137.208 73.4539C137.158 74.4683 137.083 75.4809 136.983 76.4917C136.883 77.5024 136.757 78.5101 136.607 79.5148C136.457 80.5194 136.283 81.5198 136.084 82.5159C135.884 83.5121 135.66 84.5028 135.411 85.4879C135.163 86.4731 134.89 87.4517 134.593 88.4236C134.296 89.3955 133.976 90.3596 133.632 91.3159C133.287 92.2722 132.919 93.2195 132.527 94.1578C132.136 95.0961 131.722 96.0243 131.285 96.9424C130.847 97.8606 130.388 98.7675 129.906 99.6632C129.424 100.559 128.92 101.442 128.395 102.313C127.869 103.185 127.322 104.043 126.754 104.887C126.186 105.731 125.597 106.562 124.989 107.377C124.379 108.193 123.75 108.994 123.102 109.779C122.453 110.564 121.785 111.333 121.098 112.085C120.411 112.838 119.707 113.573 118.984 114.291C118.261 115.009 117.52 115.709 116.763 116.391C116.005 117.074 115.231 117.737 114.441 118.382C113.65 119.025 112.844 119.65 112.023 120.255C111.202 120.86 110.366 121.445 109.516 122.009C108.666 122.573 107.802 123.116 106.925 123.639C106.048 124.161 105.159 124.661 104.257 125.14C103.355 125.619 102.442 126.075 101.518 126.509C100.593 126.944 99.6586 127.356 98.7139 127.744C97.7692 128.132 96.8155 128.498 95.8527 128.84C94.89 129.182 93.9194 129.501 92.9409 129.795C91.9624 130.09 90.9772 130.361 89.9853 130.608C88.9934 130.855 87.996 131.077 86.9932 131.275C85.9903 131.474 84.9831 131.647 83.9717 131.796C82.9602 131.945 81.9457 132.07 80.928 132.169C79.9105 132.269 78.891 132.343 77.8697 132.393C76.8484 132.443 75.8265 132.468 74.804 132.468C73.7814 132.468 72.7595 132.443 71.7383 132.393C70.7169 132.343 69.6975 132.269 68.6799 132.169C67.6623 132.07 66.6477 131.945 65.6363 131.796C64.6248 131.647 63.6176 131.474 62.6147 131.275C61.6119 131.077 60.6145 130.855 59.6227 130.608C58.6308 130.361 57.6456 130.09 56.6671 129.795C55.6886 129.501 54.7179 129.182 53.7551 128.84C52.7924 128.498 51.8387 128.132 50.894 127.744C49.9493 127.356 49.0148 126.944 48.0904 126.509C47.166 126.075 46.253 125.619 45.3512 125.14C44.4494 124.661 43.56 124.161 42.683 123.639C41.8059 123.116 40.9423 122.573 40.0921 122.009C39.2419 121.445 38.4061 120.86 37.5849 120.255C36.7635 119.65 35.9576 119.025 35.1672 118.382C34.3768 117.737 33.6027 117.074 32.8451 116.391C32.0875 115.709 31.3472 115.009 30.6242 114.291C29.9011 113.573 29.1962 112.838 28.5095 112.085C27.8228 111.333 27.1551 110.564 26.5065 109.779C25.8578 108.994 25.2289 108.193 24.6198 107.377C24.0106 106.562 23.422 105.731 22.8539 104.887C22.2859 104.043 21.739 103.185 21.2133 102.313C20.6876 101.442 20.1838 100.559 19.7018 99.6632C19.2197 98.7675 18.7601 97.8606 18.3229 96.9424C17.8858 96.0243 17.4715 95.0961 17.0802 94.1578C16.6889 93.2195 16.321 92.2722 15.9765 91.3159C15.632 90.3596 15.3114 89.3955 15.0146 88.4236C14.7177 87.4517 14.4451 86.4731 14.1967 85.4879C13.9482 84.5028 13.7242 83.5121 13.5247 82.5159C13.3253 81.5198 13.1505 80.5194 13.0005 79.5148C12.8504 78.5101 12.7253 77.5024 12.6251 76.4917C12.5249 75.4809 12.4497 74.4683 12.3995 73.4539C12.3493 72.4395 12.3242 71.4245 12.3242 70.4088C12.3242 69.3932 12.3493 68.3781 12.3995 67.3637C12.4497 66.3493 12.5249 65.3368 12.6251 64.326C12.7253 63.3152 12.8504 62.3075 13.0005 61.3029C13.1505 60.2982 13.3253 59.2979 13.5247 58.3018C13.7242 57.3056 13.9482 56.3149 14.1967 55.3298C14.4451 54.3445 14.7177 53.366 15.0146 52.3941C15.3114 51.4221 15.632 50.4581 15.9765 49.5018C16.321 48.5455 16.6889 47.5982 17.0802 46.6599C17.4715 45.7216 17.8858 44.7933 18.3229 43.8751C18.7601 42.957 19.2197 42.0501 19.7018 41.1544C20.1838 40.2587 20.6876 39.3752 21.2133 38.5041C21.739 37.6329 22.2859 36.7752 22.8539 35.9307C23.422 35.0863 24.0106 34.2561 24.6198 33.4403C25.2289 32.6245 25.8578 31.8241 26.5065 31.039C27.1551 30.2539 27.8228 29.4851 28.5095 28.7325C29.1962 27.98 29.9011 27.2446 30.6242 26.5265C31.3472 25.8083 32.0875 25.1082 32.8451 24.4262C33.6027 23.7441 34.3768 23.0809 35.1672 22.4366C35.9576 21.7922 36.7635 21.1676 37.5849 20.5626C38.4061 19.9576 39.2419 19.3729 40.0921 18.8086C40.9423 18.2444 41.8059 17.7012 42.683 17.179C43.56 16.6569 44.4494 16.1564 45.3512 15.6777C46.253 15.1989 47.166 14.7424 48.0904 14.3082C49.0148 13.8739 49.9493 13.4625 50.894 13.0738C51.8387 12.6851 52.7924 12.3197 53.7551 11.9775C54.7179 11.6354 55.6886 11.3169 56.6671 11.0221C57.6456 10.7272 58.6308 10.4564 59.6227 10.2097C60.6145 9.96287 61.6119 9.74041 62.6147 9.54227C63.6176 9.34413 64.6248 9.17054 65.6363 9.02152C66.6477 8.87249 67.6623 8.7482 68.6799 8.64865C69.6975 8.5491 70.7169 8.47441 71.7383 8.42458C72.7595 8.37474 73.7814 8.34982 74.804 8.34982C75.8265 8.34982 76.8484 8.37474 77.8697 8.42458C78.891 8.47441 79.9105 8.5491 80.928 8.64865C81.9457 8.7482 82.9602 8.87249 83.9717 9.02152C84.9831 9.17054 85.9903 9.34413 86.9932 9.54227C87.996 9.74041 88.9934 9.96287 89.9853 10.2097C90.9772 10.4564 91.9624 10.7272 92.9409 11.0221C93.9194 11.3169 94.89 11.6354 95.8527 11.9775C96.8155 12.3197 97.7692 12.6851 98.7139 13.0738C99.6586 13.4625 100.593 13.8739 101.518 14.3082C102.442 14.7424 103.355 15.1989 104.257 15.6777C105.159 16.1564 106.048 16.6569 106.925 17.179C107.802 17.7012 108.666 18.2444 109.516 18.8086C110.366 19.3729 111.202 19.9576 112.023 20.5626C112.844 21.1676 113.65 21.7922 114.441 22.4366C115.231 23.0809 116.005 23.7441 116.763 24.4262C117.52 25.1082 118.261 25.8083 118.984 26.5265C119.707 27.2446 120.411 27.98 121.098 28.7325C121.785 29.4851 122.453 30.2539 123.102 31.039C123.75 31.8241 124.379 32.6245 124.989 33.4403C125.597 34.2561 126.186 35.0863 126.754 35.9307C127.322 36.7752 127.869 37.6329 128.395 38.5041C128.92 39.3752 129.424 40.2587 129.906 41.1544C130.388 42.0501 130.847 42.957 131.285 43.8751C131.722 44.7933 132.136 45.7216 132.527 46.6599C132.919 47.5982 133.287 48.5455 133.632 49.5018C133.976 50.4581 134.296 51.4221 134.593 52.3941C134.89 53.366 135.163 54.3445 135.411 55.3298C135.66 56.3149 135.884 57.3056 136.084 58.3018C136.283 59.2979 136.457 60.2982 136.607 61.3029C136.757 62.3075 136.883 63.3152 136.983 64.326C137.083 65.3368 137.158 66.3493 137.208 67.3637C137.258 68.3781 137.284 69.3932 137.284 70.4088Z" fill="#F3F5F6"/>
<path id="Vector_2" d="M136.232 70.4088C136.232 62.1311 134.623 54.2141 131.405 46.658C128.297 39.3593 123.909 32.8956 118.24 27.2669C112.572 21.6383 106.064 17.2808 98.7141 14.1943C91.1062 10.9992 83.1362 9.40167 74.8041 9.40167C66.4719 9.40167 58.5019 10.9992 50.894 14.1943C43.5445 17.2808 37.0357 21.6383 31.3676 27.2669C25.6993 32.8957 21.311 39.3594 18.2029 46.658C14.9851 54.2142 13.3762 62.1311 13.3762 70.4088C13.3762 78.6865 14.9851 86.6034 18.2029 94.1597C21.311 101.458 25.6993 107.922 31.3676 113.55C37.0356 119.179 43.5444 123.537 50.894 126.624C58.5019 129.819 66.4719 131.416 74.8041 131.416C83.1362 131.416 91.1063 129.819 98.7141 126.624C106.064 123.537 112.572 119.179 118.24 113.55C123.909 107.922 128.297 101.458 131.405 94.1597C134.623 86.6035 136.232 78.6866 136.232 70.4088ZM138.336 70.4088C138.336 78.9728 136.671 87.1645 133.34 94.9839C130.125 102.535 125.586 109.222 119.723 115.044C113.861 120.864 107.13 125.371 99.5288 128.563C91.6603 131.868 83.4188 133.52 74.8041 133.52C66.1893 133.52 57.9477 131.868 50.0793 128.563C42.4783 125.371 35.747 120.864 29.8853 115.044C24.0223 109.222 19.483 102.535 16.2674 94.9839C12.9374 87.1644 11.2725 78.9727 11.2725 70.4088C11.2725 61.845 12.9374 53.6533 16.2674 45.8338C19.483 38.2828 24.0223 31.5962 29.8853 25.7741C35.747 19.9533 42.4783 15.4468 50.0793 12.2547C57.9478 8.9502 66.1894 7.29797 74.8041 7.29797C83.4188 7.29797 91.6603 8.95021 99.5288 12.2547C107.13 15.4468 113.861 19.9533 119.723 25.7741C125.586 31.5961 130.125 38.2827 133.34 45.8338C136.671 53.6532 138.336 61.8449 138.336 70.4088Z" fill="#24160B" fill-opacity="0.15"/>
</g>
<g id="Group_3">
<path id="Vector_3" d="M122.663 62.3096V100.281C122.663 108.17 116.247 114.586 108.253 114.586H41.5656C33.6767 114.586 27.2605 108.275 27.1553 100.386C27.1553 100.281 27.1553 100.281 27.1553 100.176V62.3096C27.1553 62.2044 27.1553 62.2044 27.1553 62.0992C27.1553 61.8889 27.1553 61.6785 27.2605 61.4681C27.3656 61.1526 27.4708 60.9422 27.576 60.6266L45.4574 26.4416C46.0885 25.0742 47.4559 24.3379 48.9285 24.3379H100.785C102.257 24.3379 103.519 25.0742 104.256 26.4416L122.137 60.6266C122.242 60.837 122.347 61.1526 122.453 61.4681C122.663 61.6785 122.663 61.994 122.663 62.3096Z" fill="#F3F5F6"/>
<path id="Vector_4" d="M123.715 100.281C123.715 102.363 123.311 104.354 122.504 106.256C121.723 108.094 120.621 109.721 119.198 111.138C117.773 112.556 116.135 113.653 114.284 114.43C112.367 115.236 110.357 115.638 108.253 115.638H41.5657C39.4868 115.638 37.4968 115.241 35.5955 114.448C33.7575 113.68 32.1268 112.596 30.7036 111.194C29.2797 109.792 28.171 108.178 27.3774 106.353C26.5559 104.463 26.1313 102.479 26.1036 100.4L26.1035 100.281V100.176V62.3096V62.2044V62.0992C26.1035 61.6532 26.1756 61.286 26.3197 60.9977L27.2605 61.4681L26.2627 61.1355C26.3043 61.0108 26.3639 60.8512 26.4417 60.6567C26.5042 60.5006 26.5497 60.3797 26.5782 60.294L26.6049 60.2139L44.5255 25.9541L45.4575 26.4416L44.5024 26.0008C44.9031 25.1326 45.5173 24.4557 46.3451 23.9698C47.1217 23.514 47.9829 23.286 48.9286 23.286H100.785C101.721 23.286 102.572 23.5157 103.338 23.975C104.11 24.4387 104.725 25.0947 105.182 25.9429L123.069 60.1391C123.167 60.3354 123.295 60.6675 123.451 61.1355L122.453 61.4681L123.197 60.7244C123.542 61.07 123.715 61.5984 123.715 62.3096V100.281ZM121.611 100.281V62.3096C121.611 62.1625 121.608 62.0718 121.602 62.0376C121.612 62.0924 121.648 62.1505 121.709 62.2119L121.533 62.0363L121.455 61.8007C121.33 61.4273 121.247 61.1985 121.205 61.1142L103.33 26.9403C102.773 25.9066 101.925 25.3897 100.785 25.3897H48.9286C48.364 25.3897 47.8578 25.5212 47.41 25.7841C46.9614 26.0473 46.629 26.4134 46.4126 26.8824L46.4017 26.906L28.5081 61.1142L27.5761 60.6266L28.574 60.9592C28.5324 61.084 28.4727 61.2436 28.3949 61.438C28.3325 61.5942 28.287 61.7151 28.2584 61.8007L28.2348 61.8716L28.2014 61.9385C28.2083 61.9245 28.2119 61.9164 28.2122 61.9141C28.2089 61.941 28.2072 62.0027 28.2072 62.0992V62.2044V62.3096V100.176V100.281L28.2071 100.372C28.2311 102.169 28.5976 103.883 29.3066 105.514C29.9919 107.09 30.9496 108.484 32.1797 109.695C33.4096 110.907 34.8183 111.844 36.406 112.506C38.0479 113.192 39.7678 113.535 41.5657 113.535H108.253C110.074 113.535 111.813 113.187 113.47 112.491C115.068 111.819 116.483 110.871 117.714 109.647C118.943 108.424 119.894 107.019 120.568 105.433C121.263 103.795 121.611 102.077 121.611 100.281Z" fill="#24160B" fill-opacity="0.15"/>
</g>
<g id="Group_4">
<path id="Vector_5" d="M101.954 10.4301L102.145 12.4837L100.05 12.6778L99.8597 10.6242L101.954 10.4301ZM102.523 16.5466C102.672 18.1818 102.787 19.5397 102.867 20.6202L100.769 20.7758C100.69 19.7071 100.576 18.3611 100.428 16.7378L102.523 16.5466ZM103.092 24.7473C103.134 26.1877 103.125 27.5624 103.065 28.8715L100.963 28.7755C101.021 27.5188 101.029 26.1964 100.989 24.8085L103.092 24.7473ZM102.706 33.0136C102.548 34.2775 102.335 35.6374 102.067 37.0933L99.9982 36.713C100.259 35.2964 100.466 33.976 100.619 32.7518L102.706 33.0136ZM101.248 41.125L100.873 42.7967L100.856 42.8478C100.816 42.9676 100.755 43.1479 100.675 43.389C100.411 44.1821 100.209 44.779 100.068 45.1797L98.0832 44.4811C98.2203 44.0916 98.419 43.506 98.6793 42.7243C98.76 42.482 98.8205 42.3005 98.8609 42.1799L99.8583 42.5138L98.832 42.2835L99.1954 40.6644L101.248 41.125ZM98.3981 49.0869C97.8129 50.1639 97.1587 51.0851 96.4356 51.8507L95.671 51.1285L96.4752 51.8063C96.2534 52.0696 96.0183 52.3245 95.7702 52.571L94.2876 51.0786C94.4917 50.8758 94.6847 50.6665 94.8666 50.4506L94.8858 50.4278L94.9063 50.4063C95.5039 49.7735 96.0517 48.9989 96.5498 48.0824L98.3981 49.0869ZM92.1531 55.099C90.8334 55.7338 89.4408 56.1665 87.9753 56.3972L87.6482 54.319C88.9099 54.1205 90.1075 53.7486 91.241 53.2032L92.1531 55.099ZM83.5805 56.4156C83.1841 56.3533 82.7958 56.2734 82.4154 56.176C81.3732 55.9174 80.3673 55.5244 79.3976 54.9971L80.4027 53.1489C81.2145 53.5905 82.0594 53.9202 82.9374 54.1381C83.2533 54.219 83.5764 54.2854 83.9069 54.3373L83.5805 56.4156ZM75.9228 52.2944C74.9094 51.2072 74.0904 49.9934 73.4658 48.6528L75.3726 47.7643C75.9034 48.9035 76.5998 49.9354 77.4617 50.8601L75.9228 52.2944ZM72.2436 44.4438C72.0351 42.9088 72.184 41.4051 72.6903 39.9329L74.6797 40.617C74.2816 41.7744 74.1644 42.9556 74.3281 44.1606L72.2436 44.4438ZM75.2554 36.1212C75.4031 35.9976 75.5549 35.88 75.7107 35.7683L75.7365 35.7499L75.7633 35.7331C76.9168 35.0077 78.2139 34.6039 79.6545 34.5217L79.7744 36.6219C78.6945 36.6836 77.7308 36.9809 76.8832 37.5139L76.3233 36.6235L76.9358 37.4786C76.8228 37.5595 76.7127 37.6448 76.6055 37.7345L75.2554 36.1212ZM84.1427 35.4375C84.8334 35.7839 85.4502 36.2103 85.9932 36.717L85.2756 37.486L85.9471 36.6765C86.5583 37.1836 87.1026 37.7564 87.5798 38.395L85.8945 39.6542C85.5171 39.1491 85.0869 38.6962 84.604 38.2955L84.5803 38.2759L84.5579 38.255C84.1626 37.8862 83.7099 37.5738 83.1998 37.318L84.1427 35.4375ZM89.4522 42.4601C89.7362 43.647 89.8492 44.8765 89.7911 46.1486C89.7805 46.3813 89.7647 46.6153 89.7438 46.8506L87.6483 46.6643C87.6666 46.4591 87.6803 46.2552 87.6896 46.0527C87.7387 44.9783 87.6442 43.944 87.4062 42.9497L89.4522 42.4601ZM88.8539 51.0695C88.4228 52.3827 87.8568 53.6875 87.1559 54.9838L85.3054 53.9832C85.9466 52.7973 86.4631 51.6074 86.855 50.4134L88.8539 51.0695ZM85.0921 58.5855C84.4244 59.6516 83.6296 60.7844 82.7077 61.9838L81.0398 60.7019C81.9207 59.5557 82.6772 58.478 83.3093 57.4688L85.0921 58.5855ZM80.1957 65.2002C79.3675 66.2736 78.5597 67.3561 77.7722 68.4477L76.0661 67.2168C76.8668 66.107 77.6881 65.0065 78.5301 63.9151L80.1957 65.2002ZM75.4556 71.7543L74.3071 73.4581L72.5627 72.2822L73.7112 70.5785L75.4556 71.7543Z" fill="#24160B" fill-opacity="0.15"/>
</g>
<g id="Group_5">
<path id="Vector_6" d="M108.958 4.94181C108.409 6.94032 106.213 7.67661 104.018 6.39336C101.64 5.30996 99.9938 4.39485 100.359 2.57515C100.908 0.755462 103.103 0.576648 105.664 0.387315C108.775 0.0296871 109.324 2.9433 108.958 4.94181Z" fill="#24160B" fill-opacity="0.15"/>
</g>
<g id="Group_6">
<path id="Vector_7" d="M91.2121 6.76151C92.1272 8.4024 94.6885 9.49632 96.5176 7.85544C98.5298 6.03574 100.177 4.763 99.2619 2.94331C98.3468 1.30243 96.8837 1.84939 93.7734 2.20701C91.2121 2.75398 90.114 4.94182 91.2121 6.76151Z" fill="#24160B" fill-opacity="0.15"/>
</g>
<g id="Group_7">
<path id="Vector_8" d="M99.2616 0.029696C100.542 -0.159637 101.823 0.576657 102.189 1.66006C102.372 2.0282 102.554 2.57517 102.554 2.94331C102.92 5.48878 102.006 7.67663 100.542 7.85544C98.8956 8.22359 97.2494 6.39337 97.0664 4.02671C97.0664 3.30094 97.0664 2.94331 97.0664 2.39635C97.2494 1.12362 97.9805 0.20851 99.2616 0.029696Z" fill="#999999"/>
</g>
<g id="Group_8">
<path id="Vector_9" d="M122.663 62.3096V104.173C122.663 109.958 118.035 114.586 112.145 114.586H37.6738C31.8886 114.586 27.1553 109.958 27.1553 104.173V62.0992C27.1553 61.8889 27.1553 61.6785 27.2605 61.4681H51.2426C54.8189 61.4681 57.764 64.3081 57.764 67.9896C57.764 69.7777 58.5003 71.4607 59.6574 72.6177C60.9196 73.8799 62.3922 74.511 64.2855 74.511H85.638C89.2143 74.511 92.1595 71.671 92.1595 67.9896C92.1595 66.2014 92.8958 64.5185 94.0528 63.3614C95.315 62.0992 96.7876 61.4681 98.5757 61.4681H122.453C122.663 61.6785 122.663 61.994 122.663 62.3096Z" fill="white"/>
<path id="Vector_10" d="M123.715 104.173C123.715 105.738 123.416 107.23 122.817 108.649C122.237 110.026 121.416 111.241 120.354 112.296C119.291 113.351 118.065 114.168 116.677 114.744C115.242 115.34 113.731 115.638 112.145 115.638H37.6738C36.1114 115.638 34.6151 115.34 33.1849 114.744C31.8005 114.166 30.5744 113.351 29.5066 112.298C28.4355 111.242 27.6061 110.027 27.0184 108.655C26.4085 107.23 26.1035 105.737 26.1035 104.173V62.0992C26.1035 61.6532 26.1756 61.286 26.3197 60.9977L26.6105 60.4163H51.2427C53.3312 60.4163 55.1117 61.1443 56.5841 62.6004C58.072 64.0718 58.816 65.8682 58.816 67.9896C58.816 69.5223 59.3444 70.8171 60.4012 71.8739C61.458 72.9308 62.7528 73.4592 64.2856 73.4592H85.6381C87.1503 73.4592 88.4377 72.9338 89.5004 71.8829C90.5719 70.8233 91.1077 69.5255 91.1077 67.9896C91.1077 66.9693 91.3056 65.9842 91.7014 65.0343C92.0865 64.1098 92.6225 63.3043 93.3091 62.6177C94.7767 61.1501 96.5323 60.4163 98.5758 60.4163H122.888L123.197 60.7243C123.542 61.07 123.715 61.5984 123.715 62.3096V104.173ZM121.611 104.173V62.3096C121.611 62.1625 121.608 62.0718 121.602 62.0376C121.612 62.0924 121.648 62.1505 121.709 62.2119L122.453 61.4681V62.52H98.5758C97.1132 62.52 95.8535 63.0484 94.7966 64.1052C93.7398 65.162 93.2114 66.4568 93.2114 67.9896C93.2114 70.111 92.4674 71.9074 90.9795 73.3787C89.5071 74.8348 87.7266 75.5629 85.6381 75.5629H64.2856C62.1719 75.5629 60.3813 74.8291 58.9137 73.3615C58.2271 72.6748 57.6911 71.8693 57.3059 70.9449C56.9102 69.995 56.7123 69.0099 56.7123 67.9896C56.7123 66.4537 56.1765 65.1559 55.105 64.0962C54.0423 63.0454 52.7549 62.52 51.2427 62.52H27.2605V61.4681L28.2013 61.9385C28.2083 61.9246 28.2119 61.9165 28.2122 61.9141C28.2089 61.9409 28.2072 62.0026 28.2072 62.0992V104.173C28.2072 105.449 28.4556 106.667 28.9523 107.827C29.4316 108.946 30.1088 109.937 30.9838 110.8C31.8578 111.662 32.8614 112.33 33.9945 112.802C35.1656 113.29 36.3921 113.535 37.6738 113.535H112.145C114.795 113.535 117.038 112.624 118.872 110.803C120.698 108.989 121.611 106.779 121.611 104.173Z" fill="#24160B" fill-opacity="0.15"/>
</g>
<g id="Group_9">
<path id="Vector_11" d="M135.687 40.7467C138.07 40.7467 140 38.8113 140 36.4341C140 34.057 138.07 32.1216 135.687 32.1216C133.306 32.1216 131.375 34.057 131.375 36.4341C131.375 38.8113 133.306 40.7467 135.687 40.7467Z" fill="#F3F5F6"/>
</g>
<g id="Group_10">
<path id="Vector_12" d="M131.375 26.7572C133.002 26.7572 134.32 25.4423 134.32 23.812C134.32 22.1816 133.002 20.8668 131.375 20.8668C129.749 20.8668 128.43 22.1816 128.43 23.812C128.43 25.4423 129.749 26.7572 131.375 26.7572Z" fill="#F3F5F6"/>
</g>
<g id="Group_11">
<path id="Vector_13" d="M12.0961 36.4341C13.7222 36.4341 15.0412 35.1193 15.0412 33.489C15.0412 31.8586 13.7222 30.5438 12.0961 30.5438C10.4688 30.5438 9.15088 31.8586 9.15088 33.489C9.15088 35.1193 10.4688 36.4341 12.0961 36.4341Z" fill="#F3F5F6"/>
</g>
<g id="Group_12">
<path id="Vector_14" d="M10.9392 95.7583C10.9392 95.8479 10.937 95.9373 10.9326 96.0267C10.9282 96.1161 10.9217 96.2054 10.9129 96.2945C10.9041 96.3835 10.8931 96.4724 10.88 96.5609C10.8669 96.6495 10.8516 96.7376 10.8341 96.8254C10.8167 96.9132 10.7971 97.0005 10.7753 97.0874C10.7535 97.1742 10.7297 97.2604 10.7037 97.3461C10.6777 97.4317 10.6496 97.5167 10.6195 97.601C10.5893 97.6853 10.5571 97.7688 10.5229 97.8515C10.4886 97.9342 10.4523 98.016 10.4141 98.0969C10.3758 98.1778 10.3356 98.2578 10.2934 98.3367C10.2512 98.4156 10.2071 98.4935 10.161 98.5703C10.115 98.6471 10.0672 98.7227 10.0174 98.7971C9.96769 98.8715 9.91616 98.9447 9.86284 99.0166C9.80952 99.0885 9.75446 99.159 9.69767 99.2282C9.64088 99.2974 9.58243 99.3652 9.52231 99.4315C9.4622 99.4978 9.4005 99.5627 9.3372 99.6259C9.27391 99.6892 9.2091 99.7509 9.14278 99.8111C9.07645 99.8712 9.00868 99.9296 8.93949 99.9864C8.8703 100.043 8.79975 100.098 8.72784 100.152C8.65595 100.205 8.58278 100.256 8.50835 100.306C8.43392 100.356 8.35832 100.404 8.28154 100.45C8.20477 100.496 8.1269 100.54 8.04796 100.582C7.96902 100.624 7.88909 100.665 7.80817 100.703C7.72725 100.741 7.64544 100.777 7.56273 100.812C7.48004 100.846 7.39655 100.878 7.31227 100.908C7.22798 100.938 7.14301 100.966 7.05735 100.992C6.97169 101.018 6.88544 101.042 6.79862 101.064C6.71178 101.086 6.62447 101.105 6.53668 101.123C6.44888 101.14 6.36071 101.156 6.27217 101.169C6.18362 101.182 6.09481 101.193 6.00572 101.202C5.91664 101.21 5.82739 101.217 5.73799 101.221C5.64858 101.226 5.55912 101.228 5.46961 101.228C5.3801 101.228 5.29064 101.226 5.20123 101.221C5.11182 101.217 5.02258 101.21 4.93349 101.202C4.84441 101.193 4.75559 101.182 4.66705 101.169C4.5785 101.156 4.49033 101.14 4.40254 101.123C4.31475 101.105 4.22743 101.086 4.1406 101.064C4.05377 101.042 3.96753 101.018 3.88187 100.992C3.7962 100.966 3.71123 100.938 3.62695 100.908C3.54267 100.878 3.45918 100.846 3.37648 100.812C3.29378 100.777 3.21197 100.741 3.13105 100.703C3.05013 100.665 2.9702 100.624 2.89126 100.582C2.81231 100.54 2.73445 100.496 2.65767 100.45C2.58089 100.404 2.50528 100.356 2.43085 100.306C2.35643 100.256 2.28327 100.205 2.21136 100.152C2.13947 100.098 2.06892 100.043 1.99972 99.9864C1.93053 99.9296 1.86277 99.8712 1.79644 99.8111C1.73012 99.7509 1.66531 99.6892 1.60201 99.6259C1.53871 99.5627 1.47701 99.4978 1.41689 99.4315C1.35678 99.3652 1.29833 99.2974 1.24155 99.2282C1.18476 99.159 1.1297 99.0885 1.07638 99.0166C1.02305 98.9447 0.971526 98.8715 0.921795 98.7971C0.872064 98.7227 0.824188 98.6471 0.778168 98.5703C0.732149 98.4935 0.688041 98.4156 0.645844 98.3367C0.603647 98.2578 0.563413 98.1778 0.525141 98.0969C0.486869 98.016 0.450605 97.9342 0.416349 97.8515C0.382094 97.7688 0.349888 97.6853 0.319731 97.601C0.289575 97.5167 0.261504 97.4317 0.235519 97.3461C0.209535 97.2604 0.185668 97.1742 0.163917 97.0874C0.142167 97.0005 0.12256 96.9132 0.105097 96.8254C0.0876336 96.7376 0.0723347 96.6495 0.0592002 96.5609C0.0460658 96.4724 0.0351116 96.3835 0.0263376 96.2945C0.0175638 96.2054 0.0109807 96.1161 0.00658838 96.0267C0.00219613 95.9373 0 95.8479 0 95.7583C0 95.6688 0.00219613 95.5794 0.00658838 95.49C0.0109807 95.4006 0.0175638 95.3113 0.0263376 95.2222C0.0351116 95.1331 0.0460658 95.0443 0.0592002 94.9558C0.0723347 94.8672 0.0876336 94.7791 0.105097 94.6913C0.12256 94.6035 0.142167 94.5162 0.163917 94.4293C0.185668 94.3425 0.209535 94.2563 0.235519 94.1706C0.261504 94.0849 0.289575 94 0.319731 93.9157C0.349888 93.8314 0.382094 93.7479 0.416349 93.6652C0.450605 93.5825 0.486869 93.5007 0.525141 93.4198C0.563413 93.3389 0.603647 93.2589 0.645844 93.18C0.688041 93.1011 0.732149 93.0232 0.778168 92.9464C0.824188 92.8696 0.872064 92.794 0.921795 92.7196C0.971526 92.6452 1.02305 92.572 1.07638 92.5001C1.1297 92.4282 1.18476 92.3577 1.24155 92.2885C1.29833 92.2193 1.35678 92.1515 1.41689 92.0852C1.47701 92.0189 1.53871 91.954 1.60201 91.8907C1.66531 91.8275 1.73012 91.7658 1.79644 91.7056C1.86277 91.6455 1.93053 91.5871 1.99972 91.5303C2.06892 91.4735 2.13947 91.4184 2.21136 91.3651C2.28327 91.3118 2.35643 91.2603 2.43085 91.2105C2.50528 91.1608 2.58089 91.1129 2.65767 91.0669C2.73445 91.0209 2.81231 90.9768 2.89126 90.9346C2.9702 90.8924 3.05013 90.8522 3.13105 90.8139C3.21197 90.7756 3.29378 90.7393 3.37648 90.7051C3.45918 90.6708 3.54267 90.6386 3.62695 90.6085C3.71123 90.5783 3.7962 90.5502 3.88187 90.5243C3.96753 90.4983 4.05377 90.4744 4.1406 90.4527C4.22743 90.4309 4.31475 90.4113 4.40254 90.3938C4.49033 90.3764 4.5785 90.3611 4.66705 90.3479C4.75559 90.3348 4.84441 90.3239 4.93349 90.3151C5.02258 90.3063 5.11182 90.2997 5.20123 90.2953C5.29064 90.2909 5.3801 90.2887 5.46961 90.2887C5.55912 90.2887 5.64858 90.2909 5.73799 90.2953C5.82739 90.2997 5.91664 90.3063 6.00572 90.3151C6.09481 90.3239 6.18362 90.3348 6.27217 90.3479C6.36071 90.3611 6.44888 90.3764 6.53668 90.3938C6.62447 90.4113 6.71178 90.4309 6.79862 90.4527C6.88544 90.4744 6.97169 90.4983 7.05735 90.5243C7.14301 90.5502 7.22798 90.5783 7.31227 90.6085C7.39655 90.6386 7.48004 90.6708 7.56273 90.7051C7.64544 90.7393 7.72725 90.7756 7.80817 90.8139C7.88909 90.8522 7.96902 90.8924 8.04796 90.9346C8.1269 90.9768 8.20477 91.0209 8.28154 91.0669C8.35832 91.1129 8.43392 91.1608 8.50835 91.2105C8.58278 91.2603 8.65595 91.3118 8.72784 91.3651C8.79975 91.4184 8.8703 91.4735 8.93949 91.5303C9.00868 91.5871 9.07645 91.6455 9.14278 91.7056C9.2091 91.7658 9.27391 91.8275 9.3372 91.8907C9.4005 91.954 9.46221 92.0189 9.52232 92.0852C9.58243 92.1515 9.64088 92.2193 9.69767 92.2885C9.75445 92.3577 9.80951 92.4282 9.86284 92.5001C9.91616 92.572 9.96769 92.6452 10.0174 92.7196C10.0672 92.794 10.115 92.8696 10.161 92.9464C10.2071 93.0232 10.2512 93.1011 10.2934 93.18C10.3356 93.2589 10.3758 93.3389 10.4141 93.4198C10.4523 93.5007 10.4886 93.5825 10.5229 93.6652C10.5571 93.7479 10.5893 93.8314 10.6195 93.9157C10.6496 94 10.6777 94.0849 10.7037 94.1706C10.7297 94.2563 10.7535 94.3425 10.7753 94.4293C10.7971 94.5162 10.8167 94.6035 10.8341 94.6913C10.8516 94.7791 10.8669 94.8672 10.88 94.9558C10.8931 95.0443 10.9041 95.1331 10.9129 95.2222C10.9217 95.3113 10.9282 95.4006 10.9326 95.49C10.937 95.5794 10.9392 95.6688 10.9392 95.7583Z" fill="#F3F5F6"/>
</g>
</g>
</g>
<defs>
<clipPath id="clip0_171_23078">
<rect width="140" height="133.52" fill="white"/>
</clipPath>
</defs>
</svg>
