<svg width="56" height="56" viewBox="0 0 56 56" fill="none" xmlns="http://www.w3.org/2000/svg">
<g id="vuesax/bold/notification">
<g id="notification">
<path id="Vector" d="M45.1262 33.8101L42.7929 29.9367C42.3029 29.0734 41.8595 27.4401 41.8595 26.4834V20.5801C41.8595 15.0967 38.6395 10.3601 33.9962 8.14341C32.7829 5.99675 30.5429 4.66675 27.9762 4.66675C25.4329 4.66675 23.1462 6.04341 21.9329 8.21341C17.3829 10.4767 14.2329 15.1667 14.2329 20.5801V26.4834C14.2329 27.4401 13.7895 29.0734 13.2995 29.9134L10.9429 33.8101C10.0095 35.3734 9.79954 37.1001 10.3829 38.6867C10.9429 40.2501 12.2729 41.4634 13.9995 42.0467C18.5262 43.5867 23.2862 44.3334 28.0462 44.3334C32.8062 44.3334 37.5662 43.5868 42.0929 42.0701C43.7262 41.5334 44.9862 40.2967 45.5929 38.6867C46.1995 37.0767 46.0362 35.3034 45.1262 33.8101Z" fill="#FFBE00"/>
<path id="Vector_2" d="M34.6033 46.6901C33.6233 49.3967 31.0333 51.3334 27.9999 51.3334C26.1566 51.3334 24.3366 50.5867 23.0533 49.2567C22.3066 48.5567 21.7466 47.6234 21.4199 46.6667C21.7233 46.7134 22.0266 46.7367 22.3533 46.7834C22.8899 46.8534 23.4499 46.9234 24.0099 46.9701C25.3399 47.0867 26.6933 47.1567 28.0466 47.1567C29.3766 47.1567 30.7066 47.0867 32.0133 46.9701C32.5033 46.9234 32.9933 46.9001 33.4599 46.8301C33.8333 46.7834 34.2066 46.7367 34.6033 46.6901Z" fill="#FFBE00"/>
</g>
</g>
</svg>
