<svg width="162" height="45" viewBox="0 0 162 45" fill="none" xmlns="http://www.w3.org/2000/svg">
<path d="M39.5145 0.950195H17.6751C12.4928 0.950195 7.22176 4.01018 5.91879 7.77099L0.430564 23.6138C-0.867462 27.3746 2.51333 32.2903 7.96701 34.5705L30.9662 44.1947C36.4249 46.4748 41.6959 43.4198 42.7225 37.3739L47.041 11.9069C48.0775 5.88565 44.6967 0.950195 39.5145 0.950195ZM42.7669 11.4775L38.325 35.9426C37.7426 39.1309 34.8702 40.8139 31.8645 39.6886L8.97878 31.0565C6.0175 29.9312 4.13709 27.2315 4.83793 25.0352L10.2028 8.20038C10.9036 6.0041 13.8007 4.32605 16.6633 4.45437L38.6211 5.44146C41.4886 5.58952 43.3444 8.28922 42.7669 11.4775Z" fill="#100A05"/>
<path d="M12.6408 28.6677L13.7364 28.801C16.3819 29.0922 18.6324 27.5375 19.1655 26.8268C19.6985 26.1161 20.192 24.6897 20.7744 22.3405L24.2292 8.39287L31.1389 8.99499L27.5607 25.1339C26.924 28.0212 25.7148 29.8621 23.938 30.6271C22.1613 31.3921 19.5208 31.1206 16.0413 29.9263C15.3701 29.6992 14.3534 29.3241 14.003 29.1958C13.6525 29.0675 12.9468 28.796 12.6506 28.6727L12.6408 28.6677Z" fill="#FFBE00"/>
<path d="M68.5385 10.4506H72.4271V26.095C72.4551 27.2324 72.3377 28.3687 72.0776 29.4763C71.6432 31.0694 70.641 32.4485 69.2598 33.3536C68.6494 33.7492 67.9681 34.0229 67.2536 34.1595C66.594 34.2855 65.9244 34.3515 65.253 34.3567C64.1411 34.3863 63.0353 34.1828 62.0069 33.7594C61.204 33.4217 60.466 32.9468 59.8259 32.3561C59.2591 31.7978 58.7988 31.1409 58.4677 30.4175C58.1777 29.8436 57.96 29.2359 57.8196 28.6084L57.2279 26.202L61.2404 26.0724C61.3167 26.6858 61.4545 27.29 61.6518 27.8758C61.8721 28.4862 62.2634 29.0203 62.7789 29.4143C63.506 29.9111 64.3805 30.1457 65.2586 30.0793C65.8837 30.0963 66.5055 29.9831 67.0845 29.7468C67.3298 29.6378 67.549 29.478 67.7278 29.2778C67.9066 29.0777 68.0408 28.8418 68.1215 28.5859C68.3054 28.0651 68.4449 27.5297 68.5385 26.9854C68.6245 26.3429 68.664 25.695 68.6568 25.0467L68.5385 10.4506Z" fill="#100A05"/>
<path d="M91.6613 23.221C92.072 23.7248 92.3906 24.2972 92.6024 24.9117C92.8825 25.7297 92.9769 26.5999 92.8786 27.4589C92.9175 28.8202 92.5697 30.1646 91.8755 31.3362C91.2926 32.3358 90.3709 33.0935 89.2774 33.4721C88.077 33.8519 86.8225 34.0327 85.5636 34.0075H75.087V10.4508H86.8823C87.6042 10.4412 88.3225 10.5536 89.0069 10.7833C89.6599 11.0237 90.2606 11.3872 90.7765 11.854C91.3433 12.3727 91.7862 13.0121 92.0727 13.725C92.4052 14.5775 92.5661 15.4872 92.5461 16.4019C92.5595 17.3272 92.4399 18.2496 92.191 19.1408C91.97 19.7903 91.6082 20.383 91.1316 20.8766L90.3031 21.8234C90.8554 22.3475 91.3063 22.8152 91.6613 23.221ZM78.8629 20.0763H86.1892C86.4796 20.0664 86.7638 19.9888 87.0191 19.8499C87.2744 19.711 87.4939 19.5145 87.66 19.2761C88.0697 18.8072 88.2993 18.208 88.3081 17.5854C88.3176 17.1148 88.278 16.6445 88.1898 16.1821C88.0997 15.8015 87.9044 15.4539 87.6262 15.179C87.4522 15.0186 87.248 14.8946 87.0254 14.8142C86.8028 14.7339 86.5664 14.6989 86.33 14.7113H78.8629V20.0763ZM78.8629 24.2185V29.7132H86.7527C87.0615 29.7138 87.3652 29.6342 87.634 29.482C87.9027 29.3299 88.1273 29.1105 88.2856 28.8453C88.6882 28.2337 88.8563 27.4972 88.759 26.7714C88.7683 26.3982 88.7 26.0272 88.5584 25.6818C88.4167 25.3365 88.2048 25.0243 87.9362 24.7651C87.5007 24.4107 86.9591 24.2123 86.3977 24.2016L78.8629 24.2185Z" fill="#100A05"/>
<path d="M110.129 18.6055C110.05 18.3406 109.954 18.0419 109.836 17.6699C109.626 17.1742 109.326 16.7214 108.951 16.3343C108.484 15.7763 107.906 15.3217 107.253 14.9996C106.601 14.6776 105.888 14.4951 105.161 14.4638C104.434 14.4325 103.709 14.5531 103.031 14.8179C102.353 15.0827 101.738 15.486 101.225 16.0018C100.416 16.818 99.7915 17.7981 99.3933 18.876C98.9932 20.0353 98.8024 21.2566 98.8298 22.4827C98.8055 23.659 98.9633 24.8319 99.2975 25.9599C99.6446 27.0603 100.3 28.0382 101.185 28.7777C102.137 29.5283 103.282 29.9916 104.488 30.1133C105.399 30.2229 106.323 30.0601 107.142 29.6456C107.886 29.2455 108.516 28.6639 108.974 27.9549C109.391 27.3592 109.668 26.6773 109.785 25.9599L110.14 24.489H114.271C114.113 25.4696 113.956 26.3149 113.798 27.0306C113.569 27.9354 113.232 28.8095 112.795 29.6343C112.334 30.5932 111.695 31.4558 110.912 32.1759C110.156 32.8514 109.275 33.3739 108.32 33.7144C107.082 34.1177 105.784 34.3082 104.482 34.278C103.384 34.3009 102.289 34.1429 101.242 33.8103C99.2019 33.091 97.509 31.6276 96.5023 29.7132C95.9168 28.651 95.4807 27.5132 95.2061 26.3318C94.9207 25.0366 94.7826 23.7132 94.7947 22.3869C94.7793 20.7041 95.0577 19.0316 95.6175 17.4445C96.1097 16.0381 96.8759 14.7433 97.8717 13.6349C98.7252 12.6782 99.7447 11.8839 100.881 11.2905C102.079 10.7291 103.391 10.4551 104.713 10.4902C105.894 10.3935 107.082 10.5531 108.196 10.958C109.219 11.3404 110.16 11.9142 110.969 12.6486C111.727 13.33 112.382 14.1178 112.913 14.9874C113.351 15.67 113.689 16.4121 113.916 17.1909L114.153 18.6618L110.129 18.6055Z" fill="#100A05"/>
<path d="M116.847 11.7751L121.056 12.5472C121.032 12.8167 120.955 13.0789 120.831 13.3193C120.635 13.5818 120.518 13.8944 120.493 14.221V29.0369H120.718C123.542 28.0783 126.22 26.7337 128.676 25.0413C131.704 23.006 134.487 20.629 136.971 17.9573L137.766 21.1809V21.4345C134.18 25.407 129.856 28.6454 125.035 30.9699C124.883 31.0544 124.618 31.1841 124.241 31.3531C123.296 31.8042 122.384 32.3221 121.513 32.9029C120.748 33.1137 120.07 33.564 119.58 34.1878H119.366L116.638 30.9699V30.8403C116.776 30.461 116.889 30.0732 116.976 29.6794C117.048 29.384 117.086 29.0815 117.089 28.7777V14.3506C117.076 13.487 116.995 12.6259 116.847 11.7751Z" fill="#100A05"/>
<path d="M138.882 20.4539L140.629 18.2448H140.832C141.102 18.4815 141.514 18.8084 142.06 19.1747C143.289 19.9848 144.423 20.93 145.442 21.9925L143.289 24.551C142.01 22.9945 140.527 21.6166 138.882 20.4539ZM160.72 19.1747L161.847 21.9925V22.2235C159.553 24.7244 156.973 26.9469 154.16 28.8453C151.261 30.8191 148.126 32.4209 144.827 33.613C144.445 33.9207 143.985 34.1159 143.497 34.1766C143.133 34.274 142.786 34.4301 142.472 34.6387C142.358 34.786 142.256 34.9424 142.167 35.1065C142.027 35.3375 141.891 35.4502 141.756 35.4502L140.015 31.5053L140.218 31.2743C141.176 31.1221 142.094 30.9249 142.985 30.7107C143.875 30.4966 145.036 29.8597 146.676 29.0877C147.493 28.6988 148.113 28.4283 148.519 28.2705C148.925 28.1127 149.409 27.7069 150.159 27.2279C151.081 26.7869 151.972 26.2823 152.824 25.7176C155.714 23.8686 158.366 21.6711 160.72 19.1747ZM142.782 13.37L144.32 11.0425C145.752 11.7413 147.527 13.0976 149.646 15.1114L147.6 17.3149C146.183 15.785 144.561 14.4576 142.782 13.37ZM153.546 16.154V15.9229L154.977 14.531C154.977 14.3732 155.045 14.3732 155.186 14.531C156.059 15.1212 156.851 15.8242 157.541 16.6218C157.812 16.8528 157.953 17.0444 157.953 17.1853C157.949 17.2724 157.913 17.355 157.851 17.4164L157.744 17.5347C157.445 18.0241 157.021 18.4248 156.516 18.6956C156.516 18.7745 156.482 18.7745 156.414 18.6956C155.933 18.3199 155.25 17.7395 154.363 16.9543C154.113 16.665 153.84 16.3973 153.546 16.154ZM156.104 13.37L157.338 11.623C157.821 11.8251 158.27 12.1008 158.668 12.4402C158.815 12.6196 158.988 12.7755 159.181 12.9023C159.569 13.3489 159.979 13.7759 160.41 14.1815V14.531L158.978 15.9229C158.978 16.0018 158.911 16.0018 158.77 15.9229C158.351 15.4717 157.907 15.0446 157.44 14.6437C157.029 14.2185 156.582 13.8301 156.104 13.4827V13.37Z" fill="#100A05"/>
</svg>
