<svg width="61" height="56" viewBox="0 0 61 56" fill="none" xmlns="http://www.w3.org/2000/svg">
<path d="M50.9674 0H23.1718C16.5762 0 9.86757 3.89452 8.20926 8.68102L1.22424 28.8446C-0.427792 33.6311 3.87503 39.8875 10.8161 42.7895L40.0878 55.0384C47.0351 57.9405 53.7438 54.0522 55.0503 46.3574L60.5466 13.9449C61.8657 6.28149 57.5629 0 50.9674 0ZM55.1069 13.3984L49.4535 44.5358C48.7123 48.5936 45.0565 50.7356 41.2311 49.3034L12.1038 38.3171C8.33489 36.8849 5.94164 33.4489 6.83361 30.6537L13.6616 9.22751C14.5536 6.43224 18.2408 4.29654 21.8841 4.45986L49.8304 5.71615C53.48 5.9046 55.8418 9.34057 55.1069 13.3984Z" fill="white"/>
<path d="M16.7648 35.2765L18.1593 35.4461C21.5261 35.8167 24.3905 33.838 25.0689 32.9335C25.7473 32.0289 26.3754 30.2136 27.1167 27.2236L31.5137 9.47211L40.3078 10.2384L35.7537 30.7789C34.9434 34.4536 33.4044 36.7966 31.1431 37.7702C28.8818 38.7438 25.5212 38.3984 21.0927 36.8782C20.2384 36.5893 18.9444 36.1119 18.4985 35.9486C18.0525 35.7853 17.1542 35.4398 16.7773 35.2827L16.7648 35.2765Z" fill="#FFBE00"/>
</svg>
